<?xml version="1.0" standalone="no"?>
<!DOCTYPE svg PUBLIC "-//W3C//DTD SVG 1.1//EN" "http://www.w3.org/Graphics/SVG/1.1/DTD/svg11.dtd" >
<svg xmlns="http://www.w3.org/2000/svg">
<metadata>Generated by IcoMoon</metadata>
<defs>
<font id="prm" horiz-adv-x="1024">
<font-face units-per-em="1024" ascent="960" descent="-64" />
<missing-glyph horiz-adv-x="1024" />
<glyph unicode="&#x20;" horiz-adv-x="512" d="" />
<glyph unicode="&#xe900;" glyph-name="add-fill" d="M85.333 448c0 235.52 191.147 426.667 426.667 426.667s426.667-191.147 426.667-426.667c0-235.52-191.147-426.667-426.667-426.667s-426.667 191.147-426.667 426.667zM554.667 405.333h128c23.467 0 42.667 19.2 42.667 42.667s-19.2 42.667-42.667 42.667h-128v128c0 23.467-19.2 42.667-42.667 42.667s-42.667-19.2-42.667-42.667v-128h-128c-23.467 0-42.667-19.2-42.667-42.667s19.2-42.667 42.667-42.667h128v-128c0-23.467 19.2-42.667 42.667-42.667s42.667 19.2 42.667 42.667v128z" />
<glyph unicode="&#xe901;" glyph-name="add" d="M213.333 492.8h597.333c24.742 0 44.8-20.058 44.8-44.8s-20.058-44.8-44.8-44.8h-597.333c-24.742 0-44.8 20.058-44.8 44.8s20.058 44.8 44.8 44.8zM556.8 746.667c0 24.742-20.058 44.8-44.8 44.8s-44.8-20.058-44.8-44.8v-597.333c0-24.742 20.058-44.8 44.8-44.8s44.8 20.058 44.8 44.8v597.333z" />
<glyph unicode="&#xe902;" glyph-name="arrow" d="M764.621 410.27l-87.607-87.356c-14.737-14.699-14.797-38.579-0.128-53.346l87.735 140.702zM764.621 410.27h-596.476c-20.822 0-37.673 16.909-37.673 37.73s16.851 37.73 37.673 37.73h596.476l-87.612 87.356c-14.737 14.698-14.793 38.578-0.124 53.346 14.677 14.779 38.541 14.833 53.291 0.128v0l152.26-151.822-6.025-6.046 0.026-0.026M764.621 410.27l117.931 11.106c-0.034-0.034-0.064-0.068-0.102-0.102l-0.009-0.013-152.265-151.821-6.025 6.042M876.437 468.668l6.033 6.033c0.034-0.030 0.064-0.064 0.098-0.098 0.128-0.132 0.213-0.23 0.247-0.269l-0.013 0.013c-0.047 0.055-0.166 0.188-0.324 0.35l-6.042-6.029zM876.437 468.668c11.379-11.375 11.413-29.922 0.004-41.335l-0.030-0.026-152.26-151.825M724.151 275.482l6.025-6.042c-14.746-14.703-38.609-14.656-53.291 0.128l47.266 5.914zM882.795 421.636c-0.009-0.009-0.021-0.021-0.034-0.034 0.017 0.017 0.030 0.034 0.038 0.043l-0.004-0.009z" />
<glyph unicode="&#xe903;" d="M210.371 146.368c166.701-166.703 436.537-166.724 603.261 0 166.699 166.703 166.724 436.538 0 603.263-166.703 166.702-436.535 166.726-603.261 0-166.703-166.698-166.73-436.535 0-603.263z" />
<glyph unicode="&#xe904;" d="M469.333 640c0 23.564 19.102 42.667 42.667 42.667s42.667-19.103 42.667-42.667v-256c0-23.565-19.102-42.667-42.667-42.667s-42.667 19.102-42.667 42.667v256z" />
<glyph unicode="&#xe905;" d="M554.667 256c0 23.564-19.103 42.667-42.667 42.667s-42.667-19.103-42.667-42.667c0-23.564 19.103-42.667 42.667-42.667s42.667 19.103 42.667 42.667z" />
<glyph unicode="&#xe906;" glyph-name="badge" d="M608.917 606.060l0.751 0.771 55.65 57.040c7.458 7.649 10.044 18.876 6.66 28.991v0.002c-3.388 10.156-12.173 17.535-22.746 19.132l-0.004 0.001-76.813 11.744-0.482 1.030-34.103 72.663c-4.595 9.839-15.057 14.93-25.809 14.93s-21.218-5.091-25.813-14.93v-0.004l-34.586-73.69-76.807-11.743c-10.624-1.638-19.369-8.981-22.752-19.133l-0.003-0.009c-3.421-10.112-0.837-21.335 6.621-28.984v0l56.361-57.811-0.174-1.062-13.206-80.871c0 0 0 0 0-0.004-1.711-10.769 2.819-21.615 11.759-27.93l0.003-0.004c8.893-6.306 20.688-6.921 30.241-1.63v0l68.335 37.781 1.033-0.572 67.311-37.171c4.292-2.394 9.045-3.575 13.803-3.575l14.771 115.039zM608.917 606.060l0.175-1.063M608.917 606.060l0.175-1.063M609.092 604.997l13.205-80.875M609.092 604.997l13.205-80.875M622.298 524.122c1.749-10.769-2.778-21.611-11.755-27.925l11.755 27.925zM512 940.8c-159.010 0-288.356-129.346-288.356-288.355s129.346-288.357 288.356-288.357c159.010 0 288.354 129.348 288.354 288.357s-129.344 288.355-288.354 288.355zM265.033 407.927l-158.24-284.177c-5.315-9.813-4.907-22.080 1.227-31.484s16.765-15.13 28.213-13.901l125.938 9.404 55.609-113.263c5.316-10.223 15.538-16.764 26.578-17.173h0.818c11.040 0 21.671 6.131 26.987 15.539l103.038 183.181-100.176 177.050c-41.298 17.583-78.507 43.341-109.991 74.825zM916.8 123.75l-159.467 282.543c-51.93-51.93-120.213-87.095-196.267-97.724-15.945-2.453-32.303-3.682-49.067-3.682-17.993 0-35.571 1.229-52.745 4.092l51.11-90.368 138.611-245.739c5.316-9.408 15.539-15.539 26.577-15.539h0.819c11.447 0.41 21.67 6.95 26.987 17.173l56.017 113.263 128.393-9.813c11.447-0.819 22.080 4.497 28.211 14.31 6.135 9.404 6.545 21.67 0.819 31.484z" />
<glyph unicode="&#xe907;" glyph-name="bar-chart" d="M873.498 615.1h-144.597c-12.425 0-22.502-10.074-22.502-22.501v-483.599h-51.401v700.499c0 12.427-10.074 22.501-22.498 22.501h-144.597c-12.425 0-22.502-10.074-22.502-22.501v-700.499h-51.398v266.701c0 12.425-10.074 22.498-22.501 22.498h-144.599c-12.425 0-22.501-10.074-22.501-22.498v-266.701h-51.401v700.499c0 12.427-10.074 22.501-22.499 22.501s-22.501-10.074-22.501-22.501v-722.997c0-12.429 10.074-22.502 22.501-22.502h722.997c12.429 0 22.502 10.074 22.502 22.502v506.098c0 12.425-10.074 22.499-22.502 22.499zM369 109.001h-99.599v244.198h99.599v-244.198zM610.001 109.001h-99.601v678h99.601v-678zM850.999 109.001h-99.601v461.1h99.601v-461.1z" />
<glyph unicode="&#xe908;" glyph-name="bmp" d="M321.897 375.863c0 22.012-19.717 30.737-44.324 30.737h-16.814v-61.487c4.849-0.636 10.687-0.636 19.087-0.636 22.326 0 42.051 8.405 42.051 31.386zM846.647 586.504h-20.774v100.252c0 0.63-0.098 1.255-0.183 1.893-0.034 3.981-1.297 7.891-4.023 10.986l-166.831 190.562c-0.047 0.053-0.098 0.071-0.132 0.119-0.994 1.111-2.155 2.039-3.379 2.834-0.363 0.248-0.73 0.451-1.109 0.663-1.062 0.575-2.189 1.060-3.345 1.408-0.316 0.083-0.597 0.212-0.913 0.298-1.259 0.294-2.569 0.481-3.895 0.481h-410.002c-18.723 0-33.932-15.227-33.932-33.934v-275.563h-20.772c-26.783 0-48.5-21.707-48.5-48.495v-252.202c0-26.773 21.716-48.503 48.5-48.503h20.774v-172.642c0-18.705 15.21-33.933 33.932-33.933h559.88c18.705 0 33.933 15.223 33.933 33.933v172.642h20.779c26.773 0 48.495 21.722 48.495 48.495v252.198c0 26.8-21.722 48.507-48.499 48.507zM232.058 862.066h393.038v-173.604c0-9.374 7.603-16.966 16.964-16.966h149.879v-85.001h-559.882v275.571zM643.255 310.153h-48.222l-3.247 83.516c-0.96 26.214-1.946 57.924-1.946 89.63h-0.96c-6.814-27.831-15.868-58.876-24.282-84.471l-26.539-85.086h-38.485l-23.313 84.45c-7.108 25.566-14.562 56.631-19.729 85.107h-0.644c-1.289-29.444-2.291-63.104-3.895-90.287l-3.878-82.859h-45.627l13.917 218.125h65.695l21.359-72.819c6.793-25.233 13.589-52.403 18.441-77.986h0.977c6.157 25.25 13.594 54.046 20.706 78.319l23.309 72.486h64.384l11.981-218.125zM211.878 311.147v214.221c12.953 2.603 39.168 4.54 63.76 4.54 30.088 0 48.55-2.923 64.402-12.297 15.21-8.098 26.216-22.98 26.216-42.726 0-19.418-11.317-37.534-35.921-46.588v-0.644c24.923-6.81 43.359-25.566 43.359-53.717 0-19.746-9.042-35.264-22.633-46.293-15.872-12.617-42.415-19.725-85.775-19.725-24.277 0-42.385 1.617-53.409 3.23zM791.94 73.856h-559.882v163.447h559.882v-163.447zM817.673 410.163c-16.836-15.851-41.754-22.98-70.882-22.98-6.46 0-12.292 0.329-16.806 0.96v-77.99h-48.887v215.215c15.211 2.603 36.574 4.54 66.671 4.54 30.404 0 52.092-5.837 66.654-17.485 13.918-10.999 23.313-29.133 23.313-50.483 0-21.355-7.104-39.467-20.062-51.776zM750.353 492.698c-10.031 0-16.815-0.973-20.378-1.95v-64.38c4.207-0.981 9.378-1.293 16.482-1.293 26.227 0 42.415 13.257 42.415 35.588 0 20.070-13.914 32.034-38.519 32.034zM316.739 468.745c0 16.495-12.626 25.254-34.96 25.254-10.674 0-16.834-0.649-21.030-1.293v-50.816h16.166c25.911 0 39.823 10.654 39.823 26.854z" />
<glyph unicode="&#xe909;" glyph-name="bookmark" d="M771.712 832h-519.422c-21.514 0-38.956-15.63-38.956-34.909v-698.181c0-13.419 8.583-25.651 22.080-31.462 13.497-5.815 29.516-4.181 41.211 4.203l235.375 168.734 235.375-168.734c7.044-5.047 15.654-7.65 24.341-7.65 5.734 0 11.503 1.135 16.87 3.447 13.495 5.811 22.080 18.044 22.080 31.462v698.181c0 19.279-17.442 34.909-38.955 34.909zM732.753 171.546l-196.42 140.804c-7.113 5.099-15.723 7.65-24.333 7.65s-17.22-2.551-24.333-7.65l-196.421-140.804v590.636h441.507v-590.636z" />
<glyph unicode="&#xe90a;" glyph-name="calendar" d="M315.733 490.667h51.2c9.426 0 17.067-7.641 17.067-17.067v-51.2c0-9.426-7.641-17.067-17.067-17.067h-51.2c-9.426 0-17.067 7.641-17.067 17.067v51.2c0 9.426 7.641 17.067 17.067 17.067zM486.4 490.667h51.2c9.426 0 17.067-7.641 17.067-17.067v-51.2c0-9.426-7.641-17.067-17.067-17.067h-51.2c-9.426 0-17.067 7.641-17.067 17.067v51.2c0 9.426 7.641 17.067 17.067 17.067zM657.067 490.667h51.2c9.426 0 17.067-7.641 17.067-17.067v-51.2c0-9.426-7.641-17.067-17.067-17.067h-51.2c-9.426 0-17.067 7.641-17.067 17.067v51.2c0 9.426 7.641 17.067 17.067 17.067zM315.733 320h51.2c9.426 0 17.067-7.641 17.067-17.067v-51.2c0-9.426-7.641-17.067-17.067-17.067h-51.2c-9.426 0-17.067 7.641-17.067 17.067v51.2c0 9.426 7.641 17.067 17.067 17.067zM486.4 320h51.2c9.426 0 17.067-7.641 17.067-17.067v-51.2c0-9.426-7.641-17.067-17.067-17.067h-51.2c-9.426 0-17.067 7.641-17.067 17.067v51.2c0 9.426 7.641 17.067 17.067 17.067zM657.067 320h51.2c9.426 0 17.067-7.641 17.067-17.067v-51.2c0-9.426-7.641-17.067-17.067-17.067h-51.2c-9.426 0-17.067 7.641-17.067 17.067v51.2c0 9.426 7.641 17.067 17.067 17.067zM738.133 789.333h76.8c38.502 0 81.067-42.912 81.067-85.333v-597.333c0-42.667-42.594-85.333-81.067-85.333h-605.867c-38.483 0-81.067 42.662-81.067 85.333v597.333c0 42.141 42.932 85.333 81.067 85.333h76.8v42.667c0 25.6 15.36 42.667 38.4 42.667s38.4-17.067 38.4-42.667v-42.667h298.667v42.667c0 25.6 15.36 42.667 38.4 42.667s38.4-17.067 38.4-42.667v-42.667zM776.533 106.667c23.565 0 42.667 19.102 42.667 42.667v426.667c0 23.564-19.102 42.667-42.667 42.667h-529.067c-23.564 0-42.667-19.102-42.667-42.667v-426.667c0-23.565 19.103-42.667 42.667-42.667h529.067z" />
<glyph unicode="&#xe90b;" glyph-name="camera" d="M896 233.882v332.846c0 52.803-42.761 95.704-95.386 95.704h-115.746l-1.57 6.601c-12.685 54.845-60.77 93.19-117.001 93.19h-108.698c-56.228 0-104.313-38.345-117-93.19l-1.566-6.601h-115.747c-52.626 0-95.386-42.902-95.386-95.704v-332.846c0-55.159 44.795-100.105 99.771-100.105h568.244c55.287-0.158 100.083 44.787 100.083 100.105zM842.278 233.882c0-25.455-20.676-46.199-46.050-46.199h-568.399c-25.373 0-46.048 20.745-46.048 46.199v332.846c0 22.944 18.639 41.802 41.663 41.802h137.048c12.53 0 23.337 8.643 26.157 20.901l6.422 27.344c7.048 30.33 33.673 51.545 64.687 51.545h108.698c31.014 0 57.638-21.215 64.687-51.545l6.421-27.344c2.82-12.258 13.628-20.901 26.159-20.901h137.050c22.865 0 41.66-18.701 41.66-41.802v-332.846h-0.154zM511.953 563.741c-91.469 0-166.023-74.645-166.023-166.579 0-91.776 74.397-166.579 166.023-166.579 91.473 0 166.025 74.645 166.025 166.579-0.158 91.776-74.551 166.579-166.025 166.579zM511.953 284.642c-61.867 0-112.3 50.445-112.3 112.678 0 62.071 50.276 112.674 112.3 112.674 61.867 0 112.303-50.445 112.303-112.674-0.158-62.234-50.436-112.678-112.303-112.678zM255.398 563.741h-0.94c-14.88 0-26.783-12.1-26.783-27.030 0-14.928 12.060-26.871 26.783-26.871h0.94c14.88 0 26.94 12.1 26.94 26.871-0.157 14.929-12.217 27.030-26.94 27.030z" />
<glyph unicode="&#xe90c;" glyph-name="cancel" d="M308.354 719.617l475.176-475.176c18.745-18.745 18.745-49.137 0-67.882s-49.137-18.745-67.882 0l-475.176 475.176c-18.745 18.745-18.745 49.137 0 67.882s49.137 18.745 67.882 0zM783.526 719.618c18.748-18.745 18.748-49.137 0-67.882l-475.174-475.177c-18.745-18.743-49.137-18.743-67.882 0-18.745 18.748-18.745 49.139 0 67.883l475.174 475.176c18.748 18.745 49.139 18.745 67.883 0z" />
<glyph unicode="&#xe90d;" glyph-name="cell" d="M858.061 48h-672.725c-55.165 0-100.003 44.83-100.003 99.994v600.004c0 55.165 44.838 100.003 100.003 100.003h672.725c55.164 0 100.002-44.838 100.002-100.003v-600.004c0-55.164-44.838-99.994-100.002-99.994zM185.336 793.455c-25.056 0-45.457-20.401-45.457-45.457v-600.004c0-25.054 20.401-45.449 45.457-45.449h672.725c25.054 0 45.457 20.395 45.457 45.449v600.004c0 25.056-20.403 45.457-45.457 45.457h-672.725zM930.79 575.272h-818.184c-15.055 0-27.273 12.218-27.273 27.273s12.218 27.273 27.273 27.273h818.184c15.057 0 27.273-12.218 27.273-27.273s-12.215-27.273-27.273-27.273zM930.79 393.451h-818.184c-15.055 0-27.273 12.22-27.273 27.273 0 15.057 12.218 27.273 27.273 27.273h818.184c15.057 0 27.273-12.215 27.273-27.273 0-15.053-12.215-27.273-27.273-27.273zM930.79 211.635h-818.184c-15.055 0-27.273 12.22-27.273 27.273 0 15.057 12.218 27.273 27.273 27.273h818.184c15.057 0 27.273-12.215 27.273-27.273 0-15.053-12.215-27.273-27.273-27.273zM312.609 48c-15.055 0-27.273 12.215-27.273 27.273v527.272c0 15.055 12.218 27.273 27.273 27.273s27.273-12.218 27.273-27.273v-527.272c0-15.057-12.218-27.273-27.273-27.273zM521.698 48c-15.053 0-27.273 12.215-27.273 27.273v527.272c0 15.055 12.22 27.273 27.273 27.273 15.057 0 27.273-12.218 27.273-27.273v-527.272c0-15.057-12.215-27.273-27.273-27.273zM730.795 48c-15.057 0-27.273 12.215-27.273 27.273v527.272c0 15.055 12.215 27.273 27.273 27.273 15.053 0 27.273-12.218 27.273-27.273v-527.272c0-15.057-12.22-27.273-27.273-27.273z" />
<glyph unicode="&#xe90e;" glyph-name="circle-locked" d="M512 21.333c235.639 0 426.667 191.027 426.667 426.667 0 235.642-191.027 426.667-426.667 426.667-235.643 0-426.668-191.025-426.668-426.667 0-235.639 191.025-426.667 426.668-426.667zM686.498 492.599c9.702 0 17.941-3.392 24.73-10.18 6.793-6.788 10.197-15.031 10.193-24.73v-209.459c0-9.694-3.401-17.941-10.18-24.734-6.793-6.784-15.031-10.176-24.734-10.176h-349.091c-9.694 0-17.938 3.396-24.727 10.176-6.787 6.793-10.182 15.040-10.182 24.734v209.455c0 9.702 3.393 17.95 10.182 24.734 6.789 6.788 15.033 10.18 24.727 10.18h11.635v69.823c0 44.608 15.996 82.907 47.998 114.909 31.999 32.001 70.301 48.002 114.913 48.002s82.91-16.001 114.91-48.003c32-32.001 47.996-70.301 47.996-114.908v-69.823h11.631zM418.87 562.422v-69.823h186.182v69.823c0 25.696-9.092 47.639-27.268 65.817-18.185 18.183-40.115 27.27-65.818 27.27-25.698 0-47.637-9.089-65.822-27.27-18.18-18.179-27.274-40.121-27.274-65.817z" />
<glyph unicode="&#xe90f;" glyph-name="clip" d="M253.867 592c0 133.658 115.912 242.133 258.133 242.133s258.133-108.476 258.133-242.133v-352c0-98.325-85.295-178.133-189.867-178.133-104.576 0-189.869 79.808-189.869 178.133v320.002c0 63.063 54.679 114.129 121.602 114.129s121.6-51.066 121.6-114.129v-304.002c0-19.004-16.38-34.133-36.267-34.133-19.883 0-36.267 15.13-36.267 34.133v304.002c0 25.155-21.884 45.867-49.067 45.867s-49.067-20.712-49.067-45.867v-320.002c0-60.454 52.501-109.867 117.333-109.867s117.333 49.412 117.333 109.867v352c0 95.72-83.123 173.865-185.6 173.865-102.479 0-185.598-78.145-185.598-173.865v-336c0-19.004-16.383-34.133-36.271-34.133-19.882 0-36.265 15.13-36.265 34.133v336z" />
<glyph unicode="&#xe910;" glyph-name="clock-fill" d="M85.333 448c0 235.52 190.72 426.667 426.24 426.667 235.947 0 427.093-191.147 427.093-426.667s-191.147-426.667-427.093-426.667c-235.52 0-426.24 191.147-426.24 426.667zM501.329 661.333c17.677 0 32-14.327 32-32v-182.281c0-6.025 3.179-11.605 8.358-14.677l156.958-93.129c14.686-8.713 19.422-27.746 10.53-42.325-8.768-14.383-27.499-18.995-41.946-10.33l-189.615 113.771c-5.137 3.085-8.286 8.64-8.286 14.635v214.336c0 17.673 14.327 32 32 32z" />
<glyph unicode="&#xe911;" glyph-name="close" d="M85.333 448c0-235.639 191.025-426.667 426.667-426.667 235.639 0 426.667 191.027 426.667 426.667 0 235.642-191.027 426.667-426.667 426.667-235.642 0-426.667-191.025-426.667-426.667zM682.667 618.667c11.78-11.782 11.78-30.885 0-42.667l-128-128 128-128c11.78-11.78 11.78-30.886 0-42.667s-30.886-11.78-42.667 0l-128 128-128-128c-11.782-11.78-30.884-11.78-42.667 0s-11.782 30.886 0 42.667l128 128-128 128c-11.782 11.782-11.782 30.884 0 42.667s30.885 11.782 42.667 0l128-128 128 128c11.78 11.782 30.886 11.782 42.667 0z" />
<glyph unicode="&#xe912;" glyph-name="comment" d="M257.819 220.561c-66.825 0-121.197 54.374-121.197 121.199v268.791c0 66.825 54.372 121.196 121.197 121.196h505.197c66.825 0 121.199-54.371 121.199-121.196v-271.287c0-54.652-36.979-102.012-89.924-115.187l-536.472-3.516zM257.819 220.561h368.83M257.819 220.561h368.83M626.65 220.561c7.782 0 15.253-3.093 20.757-8.597M626.65 220.561l20.757-8.597M647.407 211.964l64.414-64.414M647.407 211.964l64.414-64.414M711.821 147.55l68.796 68.796c3.767 3.767 8.495 6.447 13.67 7.731l-82.466-76.527zM732.587 85.269l-0.004-0.004c-5.508-5.5-12.971-8.597-20.762-8.597-7.787 0-15.253 3.093-20.757 8.602v0l-76.574 76.574h-356.67c-99.212 0-179.916 80.704-179.916 179.917v268.791c0 99.212 80.704 179.915 179.916 179.915h505.197c99.213 0 179.917-80.704 179.917-179.915v-271.287c0-78.814-51.507-147.516-126.285-169.924l-84.062-84.070zM351.092 564.891h318.65c16.218 0 29.359-13.151 29.359-29.359 0-16.218-13.141-29.36-29.359-29.36h-318.65c-16.216 0-29.359 13.141-29.359 29.36 0 16.209 13.142 29.359 29.359 29.359zM351.092 446.14h318.65c16.218 0 29.359-13.146 29.359-29.359 0-16.218-13.141-29.359-29.359-29.359h-318.65c-16.216 0-29.359 13.141-29.359 29.359 0 16.213 13.143 29.359 29.359 29.359z" />
<glyph unicode="&#xe913;" glyph-name="company" d="M801.719 60.561h60.561c16.721 0 30.281-13.559 30.281-30.281s-13.559-30.281-30.281-30.281h-704.001c-16.722 0-30.28 13.559-30.28 30.281s13.558 30.281 30.28 30.281h60.559v699.181c0 16.722 13.558 30.28 30.28 30.28h24.602v75.699c0 16.722 13.558 30.28 30.28 30.28h210.065c16.725 0 30.281-13.558 30.281-30.28v-75.699h227.093c16.725 0 30.281-13.558 30.281-30.28v-699.181zM483.785 835.441h-149.505v-45.42h149.505v45.42zM449.719 60.561v128.687h121.118v-128.687h-121.118zM631.398 189.248v-128.687h109.764v668.901h-461.765v-668.901h109.763v128.687h-13.248c-16.722 0-30.279 13.555-30.279 30.281 0 16.721 13.557 30.276 30.279 30.276h268.733c16.721 0 30.276-13.555 30.276-30.276 0-16.725-13.555-30.281-30.276-30.281h-13.248zM466.752 569.635c0-16.722-13.555-30.28-30.281-30.28h-34.063c-16.722 0-30.28 13.558-30.28 30.28s13.558 30.279 30.28 30.279h34.063c16.725 0 30.281-13.557 30.281-30.279zM616.256 539.355c16.725 0 30.281 13.558 30.281 30.28s-13.555 30.279-30.281 30.279h-34.061c-16.725 0-30.281-13.557-30.281-30.279s13.555-30.28 30.281-30.28h34.061zM466.752 456.085c0-16.721-13.555-30.281-30.281-30.281h-34.063c-16.722 0-30.28 13.559-30.28 30.281s13.558 30.281 30.28 30.281h34.063c16.725 0 30.281-13.559 30.281-30.281zM616.256 425.805c16.725 0 30.281 13.559 30.281 30.281s-13.555 30.281-30.281 30.281h-34.061c-16.725 0-30.281-13.559-30.281-30.281s13.555-30.281 30.281-30.281h34.061zM466.752 342.537c0-16.721-13.555-30.281-30.281-30.281h-34.063c-16.722 0-30.28 13.559-30.28 30.281s13.558 30.281 30.28 30.281h34.063c16.725 0 30.281-13.559 30.281-30.281zM616.256 312.256c16.725 0 30.281 13.559 30.281 30.281s-13.555 30.281-30.281 30.281h-34.061c-16.725 0-30.281-13.559-30.281-30.281s13.555-30.281 30.281-30.281h34.061z" />
<glyph unicode="&#xe914;" glyph-name="copy" d="M358.4 832h460.8c42.24 0 76.8-34.56 76.8-76.8v-460.8c0-42.24-34.56-76.8-76.8-76.8h-460.8c-42.24 0-76.8 34.56-76.8 76.8v460.8c0 42.24 34.56 76.8 76.8 76.8zM128 640c0 21.12 17.28 38.4 38.4 38.4s38.4-17.28 38.4-38.4v-460.8c0-21.12 17.28-38.4 38.4-38.4h460.8c21.12 0 38.4-17.28 38.4-38.4s-17.28-38.4-38.4-38.4h-499.2c-42.24 0-76.8 34.56-76.8 76.8v499.2z" />
<glyph unicode="&#xe915;" glyph-name="csv" d="M846.652 583.937h-20.774v101.089c0 0.635-0.098 1.265-0.183 1.909-0.030 4.010-1.297 7.956-4.023 11.075l-166.831 192.139c-0.047 0.054-0.102 0.070-0.132 0.119-0.994 1.125-2.155 2.056-3.379 2.858-0.367 0.25-0.73 0.455-1.114 0.666-1.058 0.581-2.185 1.070-3.345 1.421-0.316 0.083-0.597 0.213-0.909 0.299-1.263 0.299-2.573 0.487-3.895 0.487h-410.006c-18.723 0-33.932-15.353-33.932-34.214v-277.84h-20.773c-26.784 0-48.501-21.888-48.501-48.896v-254.287c0-26.995 21.716-48.905 48.501-48.905h20.773v-174.076c0-18.859 15.209-34.21 33.932-34.21h559.885c18.705 0 33.933 15.351 33.933 34.21v174.071h20.774c26.778 0 48.495 21.901 48.495 48.9v254.285c0.004 27.017-21.717 48.897-48.495 48.897zM232.059 861.786h393.037v-175.039c0-9.452 7.607-17.107 16.969-17.107h149.879v-85.702h-559.885v277.847zM487.497 397.675c-42.103 14.784-69.536 38.272-69.536 75.405 0 43.605 36.077 76.963 95.844 76.963 28.574 0 49.63-6.064 64.653-12.899l-12.766-46.621c-10.146 4.945-28.19 12.143-53.009 12.143-24.806 0-36.834-11.375-36.834-24.64 0-16.303 14.281-23.501 46.997-36.011 44.727-16.674 65.779-40.158 65.779-76.177 0-42.816-32.7-79.215-102.251-79.215-28.941 0-57.523 7.599-71.801 15.543l11.647 47.761c15.422-7.979 39.098-15.923 63.542-15.923 26.308 0 40.222 10.995 40.222 27.682-0.004 15.927-12.041 25.015-42.487 35.989zM189.003 414.366c0 87.164 61.664 135.676 138.33 135.676 29.704 0 52.257-6.064 62.414-11.375l-11.665-45.85c-11.647 4.907-27.826 9.446-48.119 9.446-45.485 0-80.81-27.644-80.81-84.489 0-51.17 30.065-83.375 81.205-83.375 17.276 0 36.45 3.78 47.724 8.333l8.653-45.103c-10.529-5.316-34.205-11.008-65.032-11.008-87.587-0.004-132.699 54.976-132.699 127.744zM791.945 67.059h-559.885v164.796h559.885v-164.796zM754.044 290.428h-66.91l-81.195 255.439h62.788l30.814-108.030c8.649-30.306 16.538-59.49 22.566-91.328h1.118c6.391 30.703 14.276 61.022 22.925 90.206l32.333 109.152h60.915l-85.355-255.439z" />
<glyph unicode="&#xe916;" glyph-name="custom" d="M464.495 534.89l-318.709-318.711c-11.855-11.853-17.786-26.052-17.786-42.59 0-16.849 5.929-30.886 17.786-42.125l49.606-50.547c12.173-11.546 26.368-17.314 42.589-17.314 16.538 0 30.578 5.769 42.123 17.314l319.171 319.181c-30.566 12.173-57.63 30.033-81.195 53.589-23.552 23.561-41.412 50.624-53.585 81.202zM288.998 182.481c-5.935-5.922-12.955-8.892-21.064-8.892-8.112 0-15.131 2.97-21.059 8.892-5.929 5.931-8.894 12.949-8.894 21.060 0 8.102 2.965 15.134 8.894 21.069 5.928 5.918 12.942 8.887 21.059 8.887 8.114 0 15.135-2.97 21.064-8.887 5.926-5.935 8.891-12.962 8.891-21.069 0-8.111-2.965-15.13-8.891-21.060zM892.028 615.39c-2.65 3.124-6.319 4.682-10.995 4.682-2.803 0-13.798-5.542-32.994-16.619-19.187-11.073-40.329-23.706-63.415-37.905-23.091-14.2-35.418-21.766-36.971-22.703l-90.334 50.079v104.835l137.122 79.1c4.992 3.431 7.488 7.799 7.488 13.104 0 5.301-2.496 9.668-7.488 13.101-13.73 9.363-30.502 16.618-50.308 21.766-19.81 5.147-38.771 7.723-56.862 7.723-57.719 0-107.093-20.52-148.117-61.547-41.037-41.024-61.542-90.402-61.542-148.121 0-57.721 20.514-107.099 61.542-148.123 41.024-41.024 90.398-61.542 148.117-61.542 43.998 0 84.322 13.035 120.986 39.078 36.651 26.052 62.323 59.985 76.988 101.793 7.168 20.902 10.756 37.442 10.756 49.606 0.013 4.669-1.323 8.57-3.972 11.694z" />
<glyph unicode="&#xe917;" glyph-name="defeinition" d="M799.603 735.558l118.899-52.892-13.521-129.334 76.352-105.332-76.352-105.271 13.521-129.395-118.946-52.937-52.89-118.899-129.335 13.513-105.331-76.343-105.271 76.343-129.395-13.513-52.945 118.946-118.899 52.89 13.521 129.335-76.343 105.331 76.343 105.271-13.521 129.395 118.945 52.945 52.899 118.892 129.334-13.513 105.332 76.343 105.271-76.343 129.395 13.513 52.937-118.945zM361.771 413.013c-12.695 12.693-12.695 33.28 0 45.973s33.278 12.693 45.973 0l63.808-63.808 162.539 162.54c12.698 12.695 33.28 12.695 45.973 0 12.698-12.695 12.698-33.277 0-45.974l-183.889-183.893c-6.767-6.763-15.765-9.92-24.623-9.481-8.853-0.439-17.856 2.718-24.619 9.481l-85.162 85.163z" />
<glyph unicode="&#xe918;" glyph-name="doc" d="M846.652 583.933h-20.774v101.094c0 0.63-0.098 1.265-0.183 1.903-0.030 4.015-1.297 7.956-4.023 11.079l-166.831 192.14c-0.047 0.049-0.102 0.067-0.132 0.119-0.994 1.12-2.155 2.053-3.379 2.858-0.367 0.245-0.73 0.45-1.114 0.665-1.058 0.582-2.185 1.068-3.345 1.419-0.316 0.087-0.597 0.213-0.909 0.299-1.263 0.303-2.573 0.49-3.895 0.49h-410.006c-18.723 0-33.932-15.353-33.932-34.214v-277.844h-20.773c-26.784 0-48.501-21.883-48.501-48.897v-254.29c0-26.987 21.716-48.896 48.501-48.896h20.773v-174.076c0-18.859 15.209-34.21 33.932-34.21h559.885c18.705 0 33.933 15.351 33.933 34.21v174.071h20.774c26.778 0 48.495 21.901 48.495 48.9v254.281c0.004 27.021-21.717 48.897-48.495 48.897zM232.059 861.786h393.037v-175.039c0-9.456 7.607-17.107 16.969-17.107h149.879v-85.707h-559.885v277.852zM639.189 421.798c0-77.773-46.767-124.915-115.533-124.915-69.798 0-110.636 53.133-110.636 120.687 0 71.091 45.023 124.224 114.471 124.224 72.239 0 111.697-54.536 111.697-119.995zM180.909 301.803v232.942c19.544 3.174 45.016 4.936 71.903 4.936 44.669 0 73.631-8.096 96.318-25.334 24.43-18.304 39.794-47.514 39.794-89.382 0-45.397-16.4-76.71-39.081-96.064-24.783-20.766-62.48-30.609-108.554-30.609-27.587-0.004-47.123 1.758-60.381 3.511zM791.945 67.059h-559.885v164.796h559.885v-164.796zM794.513 341.559c16.055 0 33.856 3.537 44.322 7.744l8.034-41.869c-9.775-4.949-31.761-10.202-60.373-10.202-81.318 0-123.204 51.021-123.204 118.583 0 80.917 57.233 125.977 128.418 125.977 27.571 0 48.529-5.63 57.958-10.564l-10.825-42.569c-10.812 4.57-25.822 8.802-44.676 8.802-42.227 0-75.042-25.694-75.042-78.473-0.004-47.509 27.917-77.431 75.388-77.431zM332.375 423.202c0.349 49.276-28.276 75.311-73.983 75.311-11.868 0-19.563-1.050-24.090-2.112v-155.191c4.526-1.058 11.867-1.058 18.502-1.058 48.158-0.341 79.571 26.402 79.571 83.051zM469.214 418.641c0-46.464 21.641-79.185 57.237-79.185 35.951 0 56.538 34.496 56.538 80.589 0 42.59-20.237 79.172-56.887 79.172-35.934-0.009-56.887-34.492-56.887-80.576z" />
<glyph unicode="&#xe919;" glyph-name="document-locked" d="M809.732 681.317l-0.004 0.001-142.81 142.813c-4.523 4.518-10.807 7.337-17.715 7.337h-396.735c-25.193 0-45.677-20.482-45.677-45.676v-718.251c0-25.19 20.482-45.675 45.676-45.675h518.925c25.19 0 45.675 20.48 45.675 45.675v596.699l-0.055 0.271c-0.222 6.164-2.688 12.212-7.279 16.806zM674.257 688.658v57.26l57.263-57.26h-57.263zM766.959 638.543l-0.004-566.565h-510.049v709.376h367.239v-97.133c0-25.191 20.484-45.679 45.679-45.679h97.135zM605.897 439.467h-187.792c-14.046 0-25.571-11.426-25.571-25.523v-153.754c0-14.076 11.448-25.523 25.571-25.523h187.792c14.046 0 25.57 11.426 25.57 25.523v153.754c0 14.071-11.447 25.523-25.57 25.523zM597.333 268.8h-170.667v136.533h170.667v-136.533zM514.999 576h-5.999c-45.453 0-82.334-36.937-82.334-82.381v-65.318h34.133v65.318c0 26.603 21.611 48.247 48.201 48.247h5.999c26.577 0 48.201-21.627 48.201-48.247v-65.318h34.133v65.318c0 45.474-36.907 82.381-82.334 82.381z" />
<glyph unicode="&#xe91a;" glyph-name="document" d="M809.732 681.317l-0.004 0.001-142.81 142.813c-4.523 4.518-10.807 7.337-17.715 7.337h-396.735c-25.193 0-45.677-20.482-45.677-45.676v-718.251c0-25.19 20.482-45.675 45.676-45.675h518.925c25.19 0 45.675 20.48 45.675 45.675v596.699l-0.055 0.271c-0.222 6.164-2.688 12.212-7.279 16.806zM674.257 688.658v57.26l57.263-57.26h-57.263zM766.959 638.543l-0.004-566.565h-510.049v709.376h367.239v-97.133c0-25.191 20.484-45.679 45.679-45.679h97.135zM346.83 576.219h330.201c13.833 0 25.058-11.217 25.054-25.056l-355.255 25.056zM346.83 576.219c-13.837 0-25.056-11.217-25.056-25.056M346.83 576.219l-25.056-25.056M321.773 551.163c0-13.837 11.219-25.058 25.056-25.058M321.773 551.163l25.056-25.058M346.83 526.106h330.201M346.83 526.106h330.201M677.030 526.106c13.837 0 25.054 11.22 25.054 25.056l-25.054-25.056zM346.83 463.642h330.201c13.833 0 25.058-11.217 25.054-25.058l-355.255 25.058zM346.83 463.642c-13.837 0-25.056-11.221-25.056-25.058M346.83 463.642l-25.056-25.058M321.773 438.583c0-13.837 11.219-25.054 25.056-25.054M321.773 438.583l25.056-25.054M346.83 413.53h330.201M346.83 413.53h330.201M677.030 413.53c13.837 0 25.054 11.217 25.054 25.054l-25.054-25.054zM346.83 351.066h330.201c13.837 0 25.058-11.221 25.054-25.058l-355.255 25.058zM346.83 351.066c-13.837 0-25.056-11.221-25.056-25.058M346.83 351.066l-25.056-25.058M321.773 326.007c0-13.837 11.22-25.054 25.056-25.054M321.773 326.007l25.056-25.054M346.83 300.954h330.201M346.83 300.954h330.201M677.030 300.954c13.833 0 25.054 11.217 25.054 25.054l-25.054-25.054zM511.932 238.485h-165.102c-13.837 0-25.056-11.221-25.056-25.058s11.22-25.054 25.056-25.054h165.102c13.837 0 25.054 11.217 25.054 25.054 0 13.841-11.217 25.058-25.054 25.058z" />
<glyph unicode="&#xe91b;" glyph-name="docx" d="M846.656 586.495h-20.779v100.251c0 0.541-0.073 1.078-0.145 1.623l-0.038 0.271c-0.030 3.98-1.301 7.89-4.028 10.984l-166.886 190.625c-0.026 0.020-0.051 0.038-0.073 0.067-0.994 1.111-2.15 2.039-3.383 2.834-0.358 0.248-0.725 0.451-1.105 0.661-1.062 0.576-2.189 1.060-3.349 1.409-0.162 0.043-0.316 0.098-0.474 0.153v0c-0.141 0.051-0.286 0.102-0.435 0.143-1.263 0.297-2.569 0.483-3.895 0.483h-410.006c-18.721 0-33.932-15.227-33.932-33.933v-275.563h-20.774c-26.783 0-48.499-21.709-48.499-48.496v-252.201c0-26.773 21.716-48.508 48.499-48.508h20.774v-172.646c0-18.705 15.21-33.929 33.932-33.929h559.885c18.705 0 33.933 15.223 33.933 33.929v172.646h20.774c26.778 0 48.495 21.722 48.495 48.499v252.2c0.004 26.787-21.717 48.496-48.491 48.496zM232.056 862.059h393.040v-173.604c0-9.374 7.603-16.966 16.969-16.966h149.875v-85h-559.884v275.571zM693.594 371.921c-8.077-3.247-21.815-5.935-34.193-5.935-36.587 0-58.121 22.899-58.112 59.204 0 40.371 25.289 60.011 57.86 60.011 14.545 0 26.112-3.217 34.453-6.729l8.341 32.572c-7.266 3.759-23.428 8.081-44.676 8.081-54.908 0-99.046-34.449-99.046-96.354 0-51.674 32.282-90.701 95.010-90.701 22.067 0 39.019 4.062 46.545 7.812l-6.182 32.038zM539.622 427.341c0-59.473-36.066-95.535-89.075-95.535-53.835 0-85.324 40.653-85.324 92.314 0 54.362 34.711 95.014 88.28 95.014 55.727 0 86.118-41.732 86.118-91.793zM186.23 513.741v-178.176c10.223-1.331 25.296-2.684 46.539-2.692 35.535 0 64.599 7.548 83.712 23.424 17.498 14.793 30.15 38.763 30.15 73.472 0 32.017-11.852 54.362-30.703 68.348-17.476 13.193-39.808 19.375-74.259 19.375-20.722 0-40.366-1.331-55.44-3.75zM791.94 73.843h-559.884v163.456h559.884v-163.456zM806.622 367.603l16.427-32.832h47.364l-53.824 92.86 51.145 88.538h-46.844l-15.343-33.114-0.111-0.256c-4.506-10.364-7.996-18.398-12.267-29.875h-0.529c-4.309 10.223-8.333 19.115-13.722 30.131l-15.872 33.114h-47.104l50.586-89.613-52.48-91.785h46.831l15.074 32.832c1.276 2.859 2.5 5.551 3.669 8.128 4.006 8.828 7.398 16.307 10.317 24.439h0.538c1.297-2.658 2.539-5.248 3.785-7.842 3.665-7.633 7.339-15.283 12.361-24.725zM303.034 428.433c0.26 37.67-21.801 57.596-57.050 57.596-9.164 0-15.074-0.811-18.578-1.621v-118.677c3.513-0.802 9.163-0.802 14.278-0.802 37.14-0.282 61.35 20.16 61.35 63.505zM408.57 424.939c0-35.533 16.689-60.557 44.14-60.557 27.721 0 43.584 26.359 43.584 61.619 0 32.572-15.603 60.561-43.874 60.561-27.717-0.004-43.85-26.385-43.85-61.623z" />
<glyph unicode="&#xe91c;" d="M813.628 749.632c-166.699 166.702-436.535 166.725-603.259 0-166.701-166.702-166.726-436.539 0-603.264 166.701-166.699 436.535-166.724 603.259 0 166.703 166.699 166.733 436.537 0 603.264z" />
<glyph unicode="&#xe91d;" d="M364.32 452.821c-12.695-12.698-12.695-33.28 0-45.973l85.161-85.163c6.763-6.763 15.765-9.924 24.619-9.481 8.858-0.444 17.86 2.718 24.623 9.481l183.893 183.893c12.693 12.693 12.693 33.278 0 45.973-12.698 12.695-33.28 12.695-45.973 0l-162.539-162.539-63.811 63.808c-12.695 12.693-33.278 12.693-45.973 0z" />
<glyph unicode="&#xe91e;" glyph-name="done" d="M193.612 415.454c-16.663-16.661-16.663-43.678 0-60.339l189.091-189.090c9.080-9.079 21.235-13.214 33.113-12.395 11.97-0.905 24.25 3.221 33.402 12.373l376.887 376.887c16.661 16.662 16.661 43.677 0 60.34l-27.106 27.106c-16.661 16.662-43.678 16.662-60.339 0l-322.689-322.687-134.912 134.912c-16.663 16.661-43.677 16.661-60.34 0l-27.105-27.106z" />
<glyph unicode="&#xe91f;" glyph-name="down" d="M663.953 242.688l-123.721 0.175c-20.813 0.030-37.739-16.815-37.811-37.632l161.532 37.457zM663.953 242.688l-421.774 421.771c-14.724 14.723-14.684 38.594 0.040 53.318s38.595 14.764 53.318 0.041l421.77-421.771-0.179 123.716c-0.026 20.817 16.819 37.743 37.632 37.811 20.834 0.073 37.743-16.764 37.773-37.589v0l0.311-214.985v-0.038l-8.533-0.009v-0.038M663.953 242.688l91.238-75.537c-0.043 0-0.090 0-0.141 0h-0.017l-215.019 0.307 0.013 8.533M784.311 204.915h8.533c0-0.047 0-0.094 0-0.137-0.004-0.188-0.013-0.316-0.017-0.367v0.017c0.004 0.073 0.017 0.252 0.017 0.478l-8.533 0.009zM784.311 204.915c0-16.090-13.086-29.231-29.227-29.231h-0.038l-215.019 0.307M540.028 175.991l-0.013-8.533c-20.826 0.030-37.662 16.939-37.594 37.773l37.606-29.239zM755.55 167.164c-0.013 0-0.030 0-0.047 0 0.026 0 0.043 0 0.060 0h-0.013z" />
<glyph unicode="&#xe920;" glyph-name="download" d="M512 288c-13.248 0-24 10.752-24 24v496c0 13.248 10.752 24 24 24s24-10.752 24-24v-496c0-13.248-10.752-24-24-24zM512 288c-6.148 0-12.288 2.334-16.964 7.040l-127.997 128c-9.375 9.374-9.375 24.572 0 33.954 9.375 9.374 24.574 9.374 33.955 0l111.036-111.040 111.040 111.040c9.374 9.374 24.58 9.374 33.954 0 9.378-9.382 9.378-24.58 0-33.954l-128.004-128c-4.732-4.706-10.871-7.040-17.020-7.040zM808 64h-591.998c-48.545 0-88.002 39.458-88.002 88v144c0 13.248 10.752 24 24 24s24-10.752 24-24v-144c0-22.046 17.953-40 40.002-40h591.998c22.046 0 40 17.954 40 40v144c0 13.248 10.752 24 24 24s24-10.752 24-24v-144c0-48.542-39.458-88-88-88z" />
<glyph unicode="&#xe921;" glyph-name="error" d="M438.208 760.984c32.887 56.646 114.697 56.646 147.588 0l334.519-576.118c33.033-56.887-8.013-128.179-73.796-128.179h-669.037c-65.783 0-106.828 71.292-73.795 128.179l334.521 576.118zM473.911 566.327v-231.565c0-22.17 17.98-40.149 40.149-40.149s40.149 17.98 40.149 40.149v231.565c0 22.172-17.98 40.149-40.149 40.149s-40.149-17.979-40.149-40.149zM471.774 210.641c0 23.326 18.974 42.291 42.287 42.291s42.291-18.97 42.291-42.291c0-23.317-18.974-42.287-42.291-42.287-23.313 0-42.287 18.97-42.287 42.287z" />
<glyph unicode="&#xe922;" glyph-name="facebook" d="M660.983 775.724h85.683v156.032c-14.784 2.126-65.621 6.91-124.834 6.91-271.094 0-197.336-320.978-208.13-368h-136.369v-174.43h136.33v-438.903h167.145v438.861h130.816l20.766 174.432h-151.62c7.351 115.47-29.76 205.099 80.213 205.099z" />
<glyph unicode="&#xe923;" glyph-name="file-open" d="M827.934 632.403l0.009 0.002-0.073 0.27c-10.825 40.601-53.747 69.672-101.321 69.672h-187.281l-62.933 65.261c-2.812 2.811-5.79 5.089-9.276 6.639-3.507 1.559-7.313 2.287-11.648 2.287h-227.651c-60.536 0.002-104.027-37.114-104.027-88.678v-455.31c0-28.399 12.789-58.786 33.421-81.028l0.332-0.405c0.12-0.149 0.271-0.337 0.438-0.533 16.241-21.581 40.557-32.29 67.277-32.29h501.353c28.241 0 54.191 13.44 74.266 32.853 20.070 19.413 34.594 45.099 39.898 70.298l0.017 0.081 58.829 309.508 0.017-0.004 0.038 0.375c2.628 26.301-2.564 53.187-18.914 72.259-12.962 15.126-31.053 24.957-52.689 28.315-0.026 0.142-0.051 0.285-0.081 0.428zM183.428 687.849v0c-0.001 10.671 6.248 17.769 15.274 22.429 9.143 4.72 20.574 6.56 29.058 6.56h215.602l60.194-62.698c5.039-5.041 11.238-7.977 17.66-8.722 4.019-1.811 8.567-2.762 13.491-2.762h191.846c12.019 0 23.168-3.737 31.424-9.369h-448.364c-55.469 0-103.563-37.003-111.637-87.955l-14.55-78.443 0.002 220.961zM840.073 540.524l-0.004 0.002-0.047-0.24-58.837-309.54c-2.394-13.15-9.621-26.47-19.328-36.48-9.745-10.052-21.5-16.29-32.747-16.29h-501.349c-8.108 0-17.295 5.077-25.456 13.534-4.284 7.539-5.527 15.275-3.613 24.849l0.011 0.060 58.831 317.18 0.015-0.003 0.036 0.356c2.274 22.73 25.336 39.638 52.018 39.642 0.003 0 0.007 0 0.011 0l501.349-2.559c12.625 0 20.77-2.607 24.589-8.331l0.235-0.351 0.294-0.298c3.797-3.798 6.285-12.359 3.994-21.531z" />
<glyph unicode="&#xe924;" glyph-name="file" d="M763.844 718.54c50.829 0 89.685-38.056 89.489-88.593v-384.452c0-53.197-41.212-96.162-89.685-96.162h-548.317c-51.025 0-87.331 48.081-87.331 96.162v460.36c0 48.082 36.502 83.478 87.331 83.478h230.592c7.458 0 12.169-2.455 17.075-7.57l54.946-57.494c3.533-3.683 8.243-5.729 13.346-5.729h232.555zM176.473 703.4v-64.655c11.775 5.524 24.727 8.593 38.857 8.593h548.514c14.716 0 28.454-3.069 40.427-8.798-4.122 19.438-21.393 29.054-40.427 29.054h-250.219c-8.828 0-17.66 3.478-23.94 10.025l-46.118 48.082c-6.281 6.752-14.916 10.435-23.942 10.435h-204.294c-9.616 0-38.661-2.455-38.857-32.737zM215.331 199.872h548.514c21.781 0 41.212 22.912 41.212 45.623l-0.196 313.659c0 25.166-19.43 37.852-41.212 37.852h-550.476c-20.802-1.228-36.698-19.642-36.698-41.33v-310.181c0-22.912 19.429-45.623 38.857-45.623zM517.943 724.269l-7.71-7.37 0.013-0.014 7.697 7.383zM462.997 781.763l7.71 7.37-0.013 0.014-7.697-7.383zM853.333 629.947l-10.667 0.041v-0.041h10.667zM176.473 703.4l-10.667 0.069v-0.069h10.667zM443.567 725.702l-7.812-7.265 0.115-0.118 7.697 7.383zM489.489 677.824v0zM489.685 677.62v0zM804.271 638.54l-4.604-9.621 19.529-9.347-4.489 21.181-10.436-2.213zM176.473 638.745h-10.667v-16.787l15.197 7.13-4.531 9.657zM805.056 245.495v0zM804.86 559.154v0zM213.172 597.006v10.667h-0.314l-0.314-0.019 0.628-10.648zM531.29 707.874h232.555v21.333h-232.555v-21.333zM510.246 716.886c5.508-5.741 12.979-9.012 21.043-9.012v21.333c-2.142 0-4.087 0.821-5.645 2.446l-15.398-14.767zM455.283 774.393l54.95-57.494 15.424 14.74-54.95 57.493-15.424-14.74zM445.922 778.667c2.496 0 3.964-0.398 5.035-0.89 1.126-0.519 2.47-1.447 4.339-3.397l15.398 14.767c-3.038 3.165-6.502 6.022-10.82 8.009-4.378 2.015-8.994 2.844-13.952 2.844v-21.333zM215.331 778.667h230.592v21.333h-230.592v-21.333zM138.667 705.855c0 41.784 31.311 72.812 76.664 72.812v21.333c-56.305 0-97.997-39.765-97.997-94.145h21.333zM138.667 245.495v460.36h-21.333v-460.36h21.333zM215.331 160c-43.65 0-76.664 41.702-76.664 85.495h-21.333c0-52.369 39.598-106.829 97.997-106.829v21.333zM763.648 160h-548.317v-21.333h548.317v21.333zM842.667 245.495c0-47.927-37.039-85.495-79.019-85.495v-21.333c54.967 0 100.352 48.363 100.352 106.829h-21.333zM842.667 629.947v-384.452h21.333v384.452h-21.333zM763.844 707.874c45.094 0 78.993-33.428 78.822-77.885l21.333-0.083c0.218 56.617-43.597 99.301-100.156 99.301v-21.333zM215.331 746.803c-5.377 0-17.103-0.629-27.869-6.209-5.539-2.871-11.041-7.165-15.145-13.514-4.133-6.395-6.449-14.263-6.51-23.611l21.333-0.138c0.038 5.793 1.425 9.588 3.094 12.169 1.698 2.628 4.095 4.625 7.043 6.153 6.208 3.217 13.814 3.817 18.053 3.817v21.333zM419.625 746.803h-204.294v-21.333h204.294v21.333zM451.379 732.966c-8.32 8.943-19.793 13.837-31.755 13.837v-21.333c6.094 0 11.889-2.472 16.13-7.033l15.625 14.529zM497.186 685.208l-45.922 47.878-15.394-14.767 45.922-47.878 15.394 14.767zM497.382 685.004l-0.196 0.205-15.394-14.768 0.196-0.204 15.394 14.767zM513.626 678.261c-6.114 0-12.105 2.428-16.243 6.743l-15.394-14.767c8.418-8.78 20.096-13.309 31.637-13.309v21.333zM518.729 678.261h-5.103v-21.333h5.103v21.333zM763.844 678.261h-245.116v-21.333h245.116v21.333zM814.707 640.753c-5.491 25.894-28.535 37.508-50.863 37.508v-21.333c15.744 0 27.238-7.618 29.99-20.599l20.873 4.425zM763.844 636.672c13.235 0 25.387-2.758 35.823-7.753l9.207 19.243c-13.504 6.463-28.83 9.843-45.030 9.843v-21.333zM215.331 636.672h548.514v21.333h-548.514v-21.333zM181.004 629.088c10.385 4.872 21.793 7.583 34.327 7.583v21.333c-15.726 0-30.223-3.427-43.388-9.603l9.061-19.313zM165.807 703.4v-64.655h21.333v64.655h-21.333zM763.844 210.539h-548.514v-21.333h548.514v21.333zM794.389 245.495c0-8.418-3.674-17.382-9.758-24.26-6.106-6.899-13.692-10.697-20.787-10.697v-21.333c14.686 0 27.708 7.659 36.762 17.894 9.075 10.257 15.117 24.107 15.117 38.396h-21.333zM794.193 559.148l0.196-313.656 21.333 0.013-0.196 313.657-21.333-0.014zM763.648 586.339c8.934 0 16.661-2.611 21.943-7.016 5.039-4.199 8.602-10.606 8.602-20.169h21.333c0 15.603-6.153 28.122-16.277 36.557-9.873 8.229-22.754 11.961-35.601 11.961v-21.333zM215.331 586.339h548.317v21.333h-548.317v-21.333zM213.172 586.339h2.159v21.333h-2.159v-21.333zM187.14 555.676c0 16.719 12.148 29.825 26.66 30.682l-1.257 21.296c-27.092-1.599-46.737-25.321-46.737-51.978h21.333zM187.14 245.495v310.181h-21.333v-310.181h21.333zM215.331 210.539c-5.611 0-12.602 3.443-18.599 10.475-5.892 6.908-9.592 15.927-9.592 24.482h-21.333c0-14.357 6.015-28.151 14.694-38.327 8.575-10.052 21.012-17.963 34.83-17.963v21.333z" />
<glyph unicode="&#xe925;" glyph-name="gif" d="M846.647 586.496h-20.774v100.251c0 0.63-0.098 1.255-0.183 1.893-0.034 3.981-1.297 7.891-4.023 10.984l-166.831 190.578c-0.047 0.049-0.098 0.066-0.132 0.115-0.994 1.111-2.155 2.039-3.379 2.834-0.363 0.248-0.73 0.451-1.109 0.663-1.062 0.575-2.189 1.060-3.345 1.408-0.316 0.083-0.597 0.212-0.913 0.298-1.259 0.294-2.569 0.481-3.895 0.481h-410.002c-18.723 0-33.932-15.227-33.932-33.934v-275.563h-20.772c-26.783 0-48.5-21.707-48.5-48.495v-252.202c0-26.773 21.716-48.503 48.5-48.503h20.774v-172.642c0-18.705 15.21-33.937 33.932-33.937h559.88c18.705 0 33.933 15.228 33.933 33.937v172.642h20.779c26.773 0 48.495 21.722 48.495 48.495v252.201c0 26.787-21.722 48.496-48.499 48.496zM791.94 73.847h-559.882v163.456h559.882v-163.456zM383.872 325.747c13.16 0 23.693 1.489 28.2 3.742v53.005h-39.098v44.74h94.358v-133.449c-17.664-6.016-51.148-14.285-84.587-14.285-46.242 0-79.698 11.648-103.011 34.206-23.311 21.794-36.086 54.882-35.706 92.087 0.364 84.207 61.656 132.32 144.73 132.32 32.694 0 57.867-6.389 70.283-12.401l-12.028-45.85c-13.905 6.012-31.203 10.889-59.034 10.889-47.717 0-83.823-27.068-83.823-81.937 0.009-52.254 32.732-83.068 79.715-83.068zM512.085 282.138v253.34h57.506v-253.34h-57.506zM767.718 430.605v-46.605h-90.978v-101.862h-57.51v253.34h154.893v-46.97h-97.382v-57.899l90.978-0.004zM791.94 586.496h-559.882v275.564h393.038v-173.604c0-9.374 7.603-16.966 16.964-16.966h149.879v-84.994z" />
<glyph unicode="&#xe926;" glyph-name="home" d="M106.73 507.311l356.766 321.347c27.554 24.652 69.453 24.652 97.079-0.066l356.139-320.794c36.109-30.95 13.683-89.664-33.515-89.664h-42.667v-268.8c0-37.858-29.235-69.086-66.291-72.265l-6.242-0.269h-128c-39.962 0-72.533 32.572-72.533 72.533v183.467h-110.933v-183.467c0-37.858-29.235-69.086-66.29-72.265l-6.245-0.269h-128c-39.962 0-72.533 32.572-72.533 72.533v268.8h-42.667c-45.371 0-67.345 54.114-37.514 85.828l3.445 3.349zM860.672 477.867l-340.002 306.275c-4.873 4.361-12.467 4.361-17.267 0.066l-340.119-306.342h50.048c15.121 0 27.616-11.234 29.594-25.813l0.273-4.053v-298.667c0-6.972 5.828-12.8 12.8-12.8h128c6.972 0 12.8 5.828 12.8 12.8v213.333c0 16.495 13.372 29.867 29.867 29.867h170.668c16.495 0 29.867-13.372 29.867-29.867v-213.333c0-6.972 5.828-12.8 12.8-12.8h128c6.972 0 12.8 5.828 12.8 12.8v298.667c0 16.495 13.372 29.867 29.867 29.867h50.005z" />
<glyph unicode="&#xe927;" glyph-name="Icon" d="M845.807 586.496h-20.779v100.251c0 0.625-0.098 1.255-0.175 1.893-0.034 3.976-1.31 7.888-4.036 10.984l-166.835 190.573c-0.051 0.049-0.098 0.066-0.132 0.119-0.994 1.111-2.155 2.034-3.379 2.834-0.363 0.244-0.73 0.448-1.109 0.663-1.062 0.575-2.189 1.060-3.349 1.408-0.311 0.083-0.597 0.212-0.909 0.295-1.263 0.297-2.569 0.484-3.895 0.484h-410.003c-18.723 0-33.932-15.227-33.932-33.934v-275.563h-20.772c-26.783 0-48.5-21.708-48.5-48.5v-252.206c0-26.765 21.716-48.495 48.5-48.495h20.774v-172.642c0-18.705 15.21-33.933 33.932-33.933h559.881c18.705 0 33.933 15.223 33.933 33.933v172.642h20.779c26.773 0 48.495 21.722 48.495 48.495v252.198c0 26.8-21.709 48.499-48.486 48.499zM231.204 862.066h393.039v-173.604c0-9.374 7.603-16.966 16.964-16.966h149.879v-85.001h-559.883v275.571zM611.938 339.349v-49.207h-161.89v259.146h58.85v-209.939h103.040zM195.151 290.146l74.981 131.11-72.293 128.032h67.288l22.683-47.285c7.696-15.757 13.466-28.459 19.621-43.063h0.759c6.167 16.538 11.155 28.075 17.687 43.063l21.921 47.285h66.903l-73.063-126.5 76.914-132.646h-67.677l-23.452 46.903c-9.606 18.078-15.766 31.531-23.068 46.524h-0.77c-5.39-15.002-11.913-28.463-19.985-46.524l-21.539-46.903-66.909 0.004zM791.087 73.847h-559.883v163.456h559.883v-163.456zM709.969 286.281c-29.594 0-58.829 7.706-73.425 15.774l11.904 48.444c15.774-8.068 39.996-16.154 64.998-16.154 26.927 0 41.139 11.153 41.139 28.066 0 16.158-12.301 25.382-43.447 36.535-43.063 15.002-71.138 38.835-71.138 76.531 0 44.224 36.915 78.052 98.069 78.052 29.21 0 50.748-6.169 66.125-13.073l-13.073-47.298c-10.377 5.005-28.843 12.305-54.212 12.305-25.374 0-37.675-11.529-37.675-24.998 0-16.533 14.596-23.846 48.055-36.535 45.756-16.917 67.294-40.747 67.294-77.278-0.021-43.456-33.463-80.371-104.614-80.371z" />
<glyph unicode="&#xe928;" glyph-name="in-progress-fill" d="M210.368 749.632c166.725 166.725 436.561 166.702 603.259 0 166.733-166.726 166.703-436.565 0-603.264-166.724-166.724-436.558-166.699-603.259 0-166.726 166.724-166.701 436.562 0 603.264zM755.366 463.445l-104.529 104.229c-11.17 11.139-29.248 11.096-40.363-0.097-11.11-11.183-11.068-29.265 0.094-40.396l55.586-55.373-402.955-0.013c-14.33 0-26.186-10.573-28.224-24.35l-0.309-4.22c0-15.778 12.771-28.574 28.533-28.574l402.912 0.026-55.543-55.411c-10.044-10.018-11.085-25.664-3.093-36.847l2.999-3.546c11.119-11.196 29.193-11.238 40.363-0.098l105.088 104.845 3.106 3.87c7.415 11.255 5.965 26.325-3.665 35.955z" />
<glyph unicode="&#xe929;" d="M813.628 749.632c-166.699 166.702-436.535 166.725-603.259 0-166.701-166.702-166.726-436.539 0-603.264 166.701-166.699 436.535-166.724 603.259 0 166.703 166.699 166.733 436.537 0 603.264z" />
<glyph unicode="&#xe92a;" d="M554.667 256c0-23.565-19.102-42.667-42.667-42.667s-42.667 19.102-42.667 42.667v256c0 23.564 19.102 42.667 42.667 42.667s42.667-19.103 42.667-42.667v-256z" />
<glyph unicode="&#xe92b;" d="M469.333 640c0-23.564 19.103-42.667 42.667-42.667s42.667 19.103 42.667 42.667c0 23.564-19.103 42.667-42.667 42.667s-42.667-19.103-42.667-42.667z" />
<glyph unicode="&#xe92c;" glyph-name="information" d="M783.458 176.538v0c150.042 150.037 150.067 392.861 0 542.924l30.17 30.17c166.733-166.726 166.703-436.565 0-603.264-166.724-166.724-436.558-166.699-603.259 0l30.17 30.17c150.040-150.042 392.861-150.063 542.92 0zM813.628 749.632l-30.17-30.17c-150.037 150.041-392.859 150.061-542.92 0-150.040-150.041-150.062-392.861 0-542.924l-30.17-30.17c-166.726 166.724-166.701 436.562 0 603.264 166.725 166.725 436.561 166.702 603.259 0zM783.458 176.538l-12.066 12.070-0.546-0.546-0.495-0.597 13.107-10.927zM783.458 176.538l12.070-12.066 0.546 0.546 0.495 0.597-13.111 10.923zM783.458 719.462l-12.066 12.068-12.066-12.068 12.066-12.068 12.066 12.068zM813.628 146.368v0zM240.538 176.538l12.068 12.070-12.068 12.066-12.068-12.066 12.068-12.070zM783.458 719.462l-12.066-12.068 12.066-12.068 12.070 12.068-12.070 12.068zM240.538 719.462v0zM240.538 176.538l12.068-12.066 12.068 12.066-12.068 12.070-12.068-12.070zM210.368 749.632v0zM770.351 187.465v0zM771.392 707.394c143.398-143.397 143.377-375.413 0-518.786l24.137-24.137c156.706 156.702 156.732 410.33 0 567.058l-24.137-24.136zM801.562 761.699l-30.17-30.17 24.137-24.136 30.17 30.17-24.137 24.136zM825.698 134.302c173.367 173.363 173.393 454.006 0 627.398l-24.137-24.136c160.064-160.061 160.038-419.091 0-579.125l24.137-24.137zM198.301 134.302c173.365-173.367 454.004-173.393 627.398 0l-24.137 24.137c-160.060-160.064-419.088-160.038-579.125 0l-24.136-24.137zM228.471 188.608l-30.17-30.17 24.136-24.137 30.17 30.17-24.136 24.137zM771.392 188.608c-143.398-143.398-375.409-143.377-518.786 0l-24.136-24.137c156.704-156.706 410.33-156.727 567.058 0l-24.137 24.137zM795.529 707.394l30.17 30.17-24.137 24.136-30.17-30.17 24.137-24.136zM252.606 707.394c143.395 143.395 375.409 143.376 518.786 0l24.137 24.136c-156.706 156.705-410.332 156.727-567.058 0l24.136-24.136zM252.606 188.608c-143.396 143.394-143.376 375.409 0 518.786l-24.136 24.136c-156.705-156.705-156.728-410.331 0-567.058l24.136 24.137zM222.437 134.302l30.17 30.17-24.136 24.137-30.17-30.17 24.136-24.137zM198.301 761.7c-173.365-173.366-173.392-454.009 0-627.398l24.136 24.137c-160.060 160.060-160.037 419.088 0 579.125l-24.136 24.136zM825.698 761.7c-173.367 173.366-454.007 173.39-627.398 0l24.136-24.136c160.059 160.059 419.087 160.037 579.125 0l24.137 24.136zM558.933 256c0-25.92-21.013-46.933-46.933-46.933s-46.933 21.013-46.933 46.933v256c0 25.92 21.013 46.933 46.933 46.933s46.933-21.013 46.933-46.933v-256zM512 614.4c-25.92 0-46.933 21.013-46.933 46.933s21.013 46.933 46.933 46.933c25.92 0 46.933-21.013 46.933-46.933s-21.013-46.933-46.933-46.933z" />
<glyph unicode="&#xe92d;" glyph-name="invisiable" d="M971.648 397.794c12.915 31.142 12.915 66.85 0 98.018-76.309 184.081-256.742 303.021-459.665 303.021-85.231 0-166.477-20.999-237.703-59.023l-125.787 125.795c-15.298 15.291-40.015 15.291-55.313 0-15.291-15.291-15.291-40.015 0-55.305l782.255-782.255c7.663-7.663 17.677-11.494 27.686-11.494 10.014 0 20.028 3.831 27.652 11.46 15.3 15.292 15.3 40.013 0 55.305l-113.941 113.941c67.166 51.123 121.182 119.377 154.816 200.538zM432.777 581.321c23.189 13.887 50.219 21.945 79.206 21.945 86.285 0 156.454-70.176 156.454-156.461 0-28.979-8.060-56.009-21.948-79.206l-213.713 213.722zM511.983 290.347c-86.29 0-156.464 70.174-156.464 156.459 0 5.67 1.096 11.034 1.683 16.508l-194.629 194.636c-46.467-45.3-84.448-99.86-110.224-162.136-12.913-31.134-12.913-66.842 0-98.018 76.269-184.073 256.702-303.019 459.634-303.019 63.245 0 124.301 11.58 180.702 33.054l-164.203 164.203c-5.47-0.589-10.829-1.685-16.499-1.685z" />
<glyph unicode="&#xe92e;" glyph-name="jpg" d="M476.228 502.421c-11.639 0-19.541-1.135-23.68-2.266v-74.799c4.898-1.131 10.91-1.51 19.17-1.51 30.46 0 49.259 15.424 49.259 41.348 0 23.309-16.175 37.227-44.749 37.227zM825.873 586.496h20.774c26.778 0 48.499-21.709 48.499-48.499v-252.198c0-26.773-21.722-48.495-48.495-48.495h-20.779v-172.642c0-18.709-15.228-33.933-33.933-33.933h-559.88c-18.723 0-33.932 15.228-33.932 33.933v172.642h-20.774c-26.783 0-48.5 21.722-48.5 48.495v252.206c0 26.792 21.716 48.5 48.5 48.5h20.772v275.563c0 18.707 15.21 33.934 33.932 33.934h410.002c1.327 0 2.637-0.187 3.895-0.486 0.166-0.043 0.324-0.099 0.482-0.156v0 0c0.141-0.050 0.282-0.101 0.431-0.142 1.156-0.347 2.283-0.828 3.345-1.408 0.38-0.211 0.747-0.415 1.109-0.658 1.225-0.8 2.385-1.723 3.379-2.834 0.021-0.032 0.047-0.052 0.077-0.072l0.055-0.047 166.831-190.573c2.726-3.098 3.989-7.008 4.023-10.989l0.038-0.268v-0.002c0.073-0.542 0.145-1.082 0.145-1.619v-100.251zM625.092 862.060h-393.036v-275.575h559.884v85.001h-149.879c-9.361 0-16.969 7.592-16.969 16.966v173.609zM577.728 466.705c0 24.802-10.893 45.858-27.042 58.633-16.934 13.542-42.121 20.301-77.453 20.301-34.961 0-59.763-2.245-77.441-5.269v-249.964h56.76v90.59c5.261-0.755 12.036-1.118 19.558-1.118 33.818 0 62.763 8.256 82.321 26.671 15.027 14.302 23.296 35.349 23.296 60.156zM222.491 338.522l-6.403-46.234c11.284-3.78 28.582-6.016 41.728-6.007 55.624 0 90.216 25.173 90.216 97.353v160.133h-57.132v-159.386c0-39.462-15.023-50.381-39.098-50.381-11.276 0-21.412 1.886-29.31 4.523zM791.94 73.847v163.456h-559.884v-163.456h559.884zM741.257 287.77c33.485 0 66.94 8.269 84.599 14.285v0 133.449h-94.357v-44.727h39.1v-53.001c-4.506-2.261-15.036-3.767-28.19-3.767-46.993 0-79.684 30.822-79.684 83.072 0 54.882 36.066 81.954 83.802 81.954 27.819 0 45.116-4.885 59.034-10.901l12.028 45.858c-12.39 6.021-37.594 12.401-70.298 12.401-83.093 0-144.363-48.113-144.725-132.32-0.393-37.222 12.407-70.298 35.721-92.096 23.292-22.549 56.764-34.206 102.972-34.206z" />
<glyph unicode="&#xe92f;" glyph-name="king" d="M812.8 64h-601.598c-50.689 0-94.077 38.345-102.735 90.897l-65.030 393.428c-3.337 20.242 4.329 40.758 19.921 53.155 15.54 12.453 36.4 14.537 54.027 5.705l191.806-96.986 157.386 293.865c19.921 37.248 70.925 37.248 90.846 0l157.385-293.865 191.808 96.986c17.574 8.832 38.485 6.747 54.025-5.705 15.595-12.397 23.262-32.913 19.921-53.155l-65.028-393.373c-8.657-52.608-52.045-90.953-102.733-90.953z" />
<glyph unicode="&#xe930;" glyph-name="link" d="M223.141 159.147h-0.001c-35.829 35.827-35.829 93.892-0.008 129.715l181.030 181.030c35.82 35.819 93.885 35.819 129.708 0 14.161-14.165 37.124-14.165 51.29 0 14.161 14.161 14.161 37.124 0 51.29-64.149 64.148-168.139 64.148-232.288 0l-181.029-181.030c-64.149-64.149-64.149-168.137 0-232.286 64.143-64.183 168.139-64.183 232.32 0l90.5 90.5c14.161 14.161 14.161 37.124 0 51.29-14.165 14.161-37.129 14.161-51.294-0.004l-90.498-90.496c-35.854-35.857-93.911-35.853-129.731-0.009zM852.151 788.169c-64.149 64.149-168.171 64.149-232.32 0l-108.578-108.579c-14.165-14.163-14.165-37.127 0-51.29 14.161-14.163 37.124-14.163 51.29 0l108.578 108.579c35.823 35.823 93.918 35.823 129.741 0 35.823-35.821 35.823-93.885 0-129.707l-199.113-199.113c-35.823-35.823-93.884-35.823-129.707 0-14.161 14.165-37.124 14.165-51.289 0-14.163-14.161-14.163-37.124 0-51.29 64.148-64.149 168.14-64.149 232.289 0l199.108 199.11c64.149 64.149 64.149 168.14 0 232.289z" />
<glyph unicode="&#xe931;" glyph-name="list" d="M170.667 618.667c23.467 0 42.667 19.2 42.667 42.667s-19.2 42.667-42.667 42.667c-23.467 0-42.667-19.2-42.667-42.667s19.2-42.667 42.667-42.667zM213.333 448c0-23.467-19.2-42.667-42.667-42.667s-42.667 19.2-42.667 42.667c0 23.467 19.2 42.667 42.667 42.667s42.667-19.2 42.667-42.667zM213.333 234.667c0-23.467-19.2-42.667-42.667-42.667s-42.667 19.2-42.667 42.667c0 23.467 19.2 42.667 42.667 42.667s42.667-19.2 42.667-42.667zM853.333 405.333h-512c-23.467 0-42.667 19.2-42.667 42.667s19.2 42.667 42.667 42.667h512c23.467 0 42.667-19.2 42.667-42.667s-19.2-42.667-42.667-42.667zM341.333 192h512c23.467 0 42.667 19.2 42.667 42.667s-19.2 42.667-42.667 42.667h-512c-23.467 0-42.667-19.2-42.667-42.667s19.2-42.667 42.667-42.667zM341.333 618.667c-23.467 0-42.667 19.2-42.667 42.667s19.2 42.667 42.667 42.667h512c23.467 0 42.667-19.2 42.667-42.667s-19.2-42.667-42.667-42.667h-512z" />
<glyph unicode="&#xe932;" glyph-name="load" d="M884.757 468.74l-176 176.001c-18.411 18.414-50.074 5.372-50.074-20.742v-73.579c-78.234-2.618-154.257-26.137-220.002-67.575v199.82h73.335c26.057 0 39.194 31.623 20.74 50.074l-176.001 176c-11.455 11.456-30.028 11.456-41.483 0l-176-176c-18.429-18.425-5.353-50.074 20.742-50.074h73.333v-674.666c0-16.201 13.132-29.333 29.333-29.333s29.333 13.133 29.333 29.333c0 36.762 0 680.329 0 703.999 0 16.2-13.132 29.333-29.333 29.333h-31.85l105.184 105.184 105.183-105.184h-31.85c-16.201 0-29.333-13.134-29.333-29.333v-703.999c0-16.201 13.132-29.333 29.333-29.333s29.332 13.133 29.332 29.333v102.665c0 124.467 97.417 226.615 220.002 234.214v-72.879c0-26.048 31.616-39.202 50.074-20.745l176 176c11.456 11.456 11.456 30.029 0 41.485zM717.35 342.814v31.851c0 16.201-13.133 29.333-29.333 29.333h-14.669c-95.851 0-181.103-46.212-234.667-117.525v124.749c66.756 52.173 149.551 80.777 234.667 80.777h14.669c16.201 0 29.333 13.137 29.333 29.333v31.852l105.182-105.183-105.182-105.186z" />
<glyph unicode="&#xe933;" glyph-name="locked" d="M843.311 469.824c-11.315 11.315-25.050 16.964-41.216 16.964h-19.383v116.37c0 74.341-26.658 138.173-79.991 191.505-53.333 53.335-117.158 80.003-191.509 80.003s-138.188-26.668-191.514-80c-53.335-53.335-79.994-117.164-79.994-191.508v-116.37h-19.391c-16.156 0-29.896-5.649-41.21-16.964-11.314-11.307-16.969-25.045-16.969-41.216v-349.082c0-16.158 5.657-29.901 16.969-41.216 11.314-11.307 25.054-16.964 41.21-16.964h581.796c16.171 0 29.901 5.653 41.22 16.964 11.302 11.315 16.969 25.058 16.969 41.216v349.086c0.009 16.158-5.666 29.897-16.986 41.212zM666.355 486.788h-310.29v116.37c0 42.825 15.154 79.393 45.455 109.69 30.305 30.301 66.866 45.449 109.699 45.449s79.386-15.145 109.692-45.449c30.293-30.295 45.444-66.865 45.444-109.69v-116.37z" />
<glyph unicode="&#xe934;" glyph-name="mail" d="M954.236 553.015c0.521-1.161 0.819-3.177 0.819-4.512l0.678-491.897c0.017-12.553-10.146-22.741-22.694-22.758l-841.367-1.156c-6.018 0-11.791 2.385-16.051 6.635-4.266 4.254-6.668 10.031-6.677 16.060l-0.678 492.673c0 0.079 0.009 0.154 0.019 0.229l0.017 0.17c0.108 7.094 3.505 14.033 9.785 18.373l127.657 88.228v93.553c0 12.549 10.175 22.727 22.727 22.727h145.513l125.155 86.5c7.799 5.388 18.116 5.365 25.89-0.045l124.352-86.455h146.155c12.548 0 22.729-10.178 22.729-22.727v-94.668l127.040-88.31c4.535-3.155 7.569-7.674 8.93-12.62zM890.884 548.113l-72.623 50.471v-100.958l72.623 50.487zM512.026 811.479l57.737-40.137h-115.806l58.069 40.137zM772.809 725.885h-521.609v-260.87l175.292-121.148 71.919 55.787c8.286 6.426 19.571 6.208 27.55 0.222l0.132-0.090 0.183-0.132 71.403-55.386 175.13 121.754v259.863zM205.745 599.806v-103.375l-74.787 51.685 74.787 51.69zM388.807 314.641l-275.026 190.067 0.555-402.965 274.472 212.898zM158.184 78.234l354.162 274.709 352.892-273.737-707.054-0.973zM909.662 505.805l-274.347-190.729 274.901-213.239-0.555 403.968zM955.055 548.503v0zM954.236 553.015l-6.17-1.701 0.132-0.466 0.196-0.441 5.841 2.608zM955.733 56.606v0zM933.039 33.847v0zM91.703 32.691v-6.4h0.009l-0.009 6.4zM75.622 39.326l-4.521-4.531 0.002-0.004 4.519 4.535zM68.945 55.386v0zM68.267 548.059h-6.4v-0.009l6.4 0.009zM68.286 548.288l6.351-0.809 0.016 0.16-6.367 0.649zM68.303 548.458l6.391-0.652 0.008 0.554-6.399 0.097zM78.088 566.831v0zM205.745 655.059l3.639-5.265 2.761 1.908v3.356h-6.4zM373.985 771.34v-6.4h1.996l1.642 1.135-3.639 5.265zM499.14 857.84v0zM525.030 857.795l-3.657-5.253 0.004-0.002 3.652 5.255zM649.382 771.34l-3.652-5.255 1.647-1.145h2.005v6.4zM818.266 653.945h-6.4v-3.345l2.748-1.909 3.652 5.255zM945.306 565.635v0zM818.261 598.584l3.652 5.256-10.052 6.986v-12.241h6.4zM890.884 548.113l3.657-5.255 7.561 5.256-7.565 5.255-3.652-5.256zM818.261 497.626h-6.4v-12.245l10.057 6.989-3.657 5.257zM569.762 771.342v-6.4h20.42l-16.764 11.655-3.657-5.255zM512.026 811.479l3.652 5.255-3.639 2.532-3.652-2.522 3.639-5.265zM453.956 771.342l-3.639 5.265-16.875-11.665h20.514v6.4zM251.2 725.885v6.4h-6.4v-6.4h6.4zM772.809 725.885h6.4v6.4h-6.4v-6.4zM251.2 465.015h-6.4v-3.354l2.761-1.911 3.639 5.265zM426.491 343.868l-3.639-5.265 3.857-2.662 3.703 2.871-3.921 5.056zM498.411 399.654v0zM525.961 399.876l-3.844-5.124 0.23-0.158 3.614 5.282zM526.093 399.787l3.686 5.231-0.073 0.051-3.614-5.282zM526.276 399.654l3.925 5.065-0.239 0.171-3.686-5.235zM597.679 344.269l-3.921-5.056 3.712-2.884 3.861 2.684-3.652 5.257zM772.809 466.022l3.652-5.257 2.748 1.911v3.345h-6.4zM205.745 496.431l-3.639-5.265 10.039-6.938v12.203h-6.4zM205.745 599.806h6.4v12.204l-10.039-6.938 3.639-5.265zM130.958 548.116l-3.639 5.265-7.617-5.265 7.618-5.265 3.639 5.265zM113.781 504.708l3.639 5.265-10.056 6.95 0.017-12.224 6.4 0.009zM388.807 314.641l3.922-5.060 6.903 5.355-7.187 4.971-3.639-5.265zM114.336 101.743l-6.4-0.009 0.018-13.039 10.304 7.991-3.922 5.056zM512.346 352.943l3.921 5.056-3.921 3.042-3.921-3.042 3.921-5.056zM158.184 78.234l-3.923 5.060-14.804-11.486 18.735 0.026-0.009 6.4zM865.237 79.206l0.009-6.4 18.65 0.026-14.737 11.435-3.921-5.060zM635.315 315.076l-3.652 5.252-7.151-4.971 6.882-5.342 3.921 5.060zM909.662 505.805l6.4 0.009-0.017 12.224-10.035-6.98 3.652-5.252zM910.217 101.837l-3.921-5.060 10.338-8.021-0.017 13.090-6.4-0.009zM961.455 548.511c0 1.837-0.358 4.836-1.374 7.112l-11.686-5.216c-0.047 0.102-0.034 0.093 0.013-0.069 0.038-0.146 0.081-0.348 0.124-0.592 0.090-0.518 0.124-0.994 0.124-1.251l12.8 0.017zM962.133 56.614l-0.678 491.897-12.8-0.017 0.678-491.897 12.8 0.017zM933.047 27.447c16.081 0.021 29.107 13.082 29.086 29.167l-12.8-0.017c0.013-9.015-7.292-16.337-16.303-16.35l0.017-12.8zM91.712 26.291l841.335 1.156-0.017 12.8-841.336-1.156 0.017-12.8zM91.672 26.291h0.031v12.8h-0.031v-12.8zM71.102 34.79c5.461-5.444 12.858-8.499 20.57-8.499v12.8c-4.325 0-8.471 1.715-11.532 4.766l-9.038-9.067zM62.545 55.377c0.011-7.727 3.090-15.13 8.556-20.582l9.042 9.058c-3.066 3.059-4.791 7.211-4.798 11.541l-12.8-0.017zM61.867 548.050l0.678-492.673 12.8 0.017-0.678 492.674-12.8-0.017zM61.937 549.097c-0.003-0.020-0.070-0.489-0.070-1.038h12.8c0-0.217-0.013-0.387-0.023-0.485-0.008-0.083-0.017-0.149-0.010-0.096l-12.697 1.618zM61.936 549.107l-0.017-0.17 12.734-1.298 0.017 0.17-12.734 1.298zM74.449 572.096c-8.062-5.572-12.408-14.481-12.545-23.541l12.798-0.194c0.078 5.129 2.527 10.097 7.024 13.206l-7.278 10.53zM202.106 660.324l-127.657-88.228 7.278-10.53 127.657 88.228-7.278 10.53zM199.345 748.613v-93.553h12.8v93.553h-12.8zM228.472 777.74c-16.088 0-29.127-13.044-29.127-29.127h12.8c0 9.015 7.31 16.327 16.327 16.327v12.8zM373.985 777.74h-145.513v-12.8h145.513v12.8zM495.505 863.105l-125.158-86.5 7.277-10.53 125.156 86.5-7.275 10.53zM528.687 863.048c-9.963 6.934-23.189 6.963-33.182 0.058l7.275-10.531c5.598 3.869 13.009 3.853 18.594-0.033l7.313 10.506zM653.039 776.595l-124.356 86.455-7.305-10.51 124.352-86.455 7.309 10.51zM795.537 777.74h-146.155v-12.8h146.155v12.8zM824.666 748.613c0 16.084-13.043 29.127-29.129 29.127v-12.8c9.015 0 16.329-7.313 16.329-16.327h12.8zM824.666 653.945v94.668h-12.8v-94.668h12.8zM948.958 570.89l-127.040 88.31-7.305-10.51 127.036-88.31 7.309 10.511zM960.41 554.716c-1.749 6.33-5.636 12.131-11.452 16.174l-7.309-10.51c3.26-2.266 5.436-5.503 6.417-9.067l12.343 3.402zM814.609 593.329l72.623-50.471 7.305 10.511-72.623 50.471-7.305-10.511zM824.661 497.626v100.958h-12.8v-100.958h12.8zM887.232 553.367l-72.623-50.49 7.309-10.509 72.623 50.489-7.309 10.51zM573.419 776.597l-57.741 40.137-7.305-10.51 57.737-40.137 7.309 10.51zM453.956 764.942h115.806v12.8h-115.806v-12.8zM508.386 816.744l-58.069-40.137 7.279-10.53 58.069 40.137-7.279 10.53zM251.2 719.485h521.609v12.8h-521.609v-12.8zM257.6 465.015v260.87h-12.8v-260.87h12.8zM430.131 349.133l-175.293 121.148-7.277-10.53 175.292-121.148 7.279 10.53zM494.49 404.715l-71.921-55.791 7.844-10.112 71.923 55.787-7.846 10.116zM529.805 404.992c-10.219 7.667-24.687 7.966-35.315-0.277l7.846-10.116c5.935 4.604 14.042 4.467 19.785 0.158l7.684 10.236zM529.707 405.069l-0.132 0.090-7.228-10.564 0.132-0.090 7.228 10.564zM529.963 404.89l-0.183 0.128-7.373-10.466 0.183-0.128 7.373 10.466zM601.6 349.325l-71.403 55.39-7.842-10.116 71.403-55.386 7.842 10.112zM769.156 471.279l-175.13-121.754 7.305-10.513 175.13 121.754-7.305 10.513zM766.409 725.885v-259.863h12.8v259.863h-12.8zM212.145 496.431v103.375h-12.8v-103.375h12.8zM127.319 542.851l74.787-51.686 7.277 10.53-74.787 51.685-7.277-10.53zM202.106 605.071l-74.787-51.69 7.278-10.53 74.786 51.69-7.278 10.53zM110.142 499.443l275.026-190.067 7.277 10.53-275.026 190.067-7.277-10.53zM120.736 101.751l-0.555 402.965-12.8-0.017 0.555-402.965 12.8 0.017zM384.884 319.697l-274.472-212.894 7.845-10.116 274.472 212.894-7.845 10.116zM508.425 357.999l-354.164-274.705 7.845-10.116 354.161 274.705-7.842 10.116zM869.158 84.267l-352.892 273.732-7.842-10.116 352.887-273.732 7.846 10.116zM158.192 71.834l707.054 0.973-0.017 12.8-707.054-0.973 0.017-12.8zM638.972 309.82l274.342 190.729-7.305 10.509-274.347-190.729 7.309-10.509zM914.138 106.893l-274.897 213.239-7.846-10.116 274.901-213.239 7.842 10.116zM903.262 505.796l0.555-403.972 12.8 0.021-0.555 403.968-12.8-0.017zM665.869 634.975h-307.73c-12.549 0-22.727-10.178-22.727-22.727s10.178-22.728 22.727-22.728h307.73c12.553 0 22.729 10.178 22.729 22.728s-10.176 22.727-22.729 22.727zM665.869 516.791h-307.73c-12.549 0-22.727-10.176-22.727-22.724 0-12.553 10.178-22.729 22.727-22.729h307.73c12.553 0 22.729 10.176 22.729 22.729 0 12.548-10.176 22.724-22.729 22.724z" />
<glyph unicode="&#xe935;" glyph-name="map" d="M911.996 501.333c-14.72 0-26.667-11.947-26.667-26.667v-301.969l-213.333-85.333v280.64c0 14.716-11.947 26.662-26.667 26.662s-26.667-11.947-26.667-26.662v-280.589l-213.332 85.333v422.505l123.574-49.44c13.491-5.44 29.171 1.173 34.667 14.88 5.491 13.653-1.173 29.173-14.882 34.666l-159.625 63.893c0 0 0 0-0.053 0l-0.427 0.16c-6.346 2.56-13.44 2.56-19.786 0l-0.48-0.16c0 0 0 0-0.053 0l-266.185-106.506c-10.080-4.053-16.747-13.813-16.747-24.748v-479.996c0-8.853 4.427-17.118 11.733-22.080 4.48-3.038 9.653-4.587 14.933-4.587 3.36 0 6.72 0.64 9.92 1.92l256.745 102.665 256.267-102.502c0 0 0 0 0.051 0l0.482-0.213c6.345-2.56 13.436-2.56 19.785 0l0.478 0.213c0 0 0 0 0.055 0l266.185 106.449c10.027 4.109 16.691 13.867 16.691 24.802v319.996c0 14.72-11.947 26.667-26.662 26.667zM351.998 172.749l-213.332-85.333v422.558l213.332 85.334v-422.558zM751.991 768.024c-44.105 0-79.996-35.891-79.996-79.995s35.891-79.995 79.996-79.995c44.105 0 79.996 35.891 79.996 79.995s-35.891 79.995-79.996 79.995zM751.991 661.364c-14.72 0-26.662 11.946-26.662 26.665s11.942 26.665 26.662 26.665c14.72 0 26.667-11.946 26.667-26.665s-11.947-26.665-26.667-26.665zM751.991 874.69c-102.929 0-186.654-83.728-186.654-186.655 0-95.78 149.747-265.422 166.814-284.464 5.069-5.598 12.267-8.849 19.84-8.849s14.771 3.251 19.84 8.849c17.062 19.042 166.814 188.684 166.814 284.464 0 102.927-83.729 186.655-186.654 186.655zM751.991 462.076c-58.236 69.065-133.325 175.083-133.325 225.959 0 73.489 59.836 133.325 133.325 133.325s133.325-59.836 133.325-133.325c0-50.823-75.089-156.895-133.325-225.959z" />
<glyph unicode="&#xe936;" glyph-name="memo" d="M802.718 807.643h-103.727v39.015c0 16.648-13.495 30.142-30.14 30.142-16.649 0-30.144-13.494-30.144-30.142v-39.015h-96.563v39.015c0 16.648-13.5 30.142-30.144 30.142s-30.144-13.494-30.144-30.142v-39.015h-96.564v39.015c0 16.648-13.496 30.142-30.142 30.142s-30.142-13.494-30.142-30.142v-39.015h-103.725c-16.646 0-30.142-13.496-30.142-30.142v-728.157c0-16.649 13.496-30.144 30.142-30.144h581.434c16.644 0 30.14 13.495 30.14 30.144v728.157c0 16.646-13.495 30.142-30.14 30.142zM772.574 79.484h-521.148v667.875h73.583v-30.559c0-16.648 13.496-30.142 30.142-30.142s30.142 13.494 30.142 30.142v30.559h96.564v-30.559c0-16.648 13.5-30.142 30.144-30.142s30.144 13.494 30.144 30.142v30.559h96.563v-30.559c0-16.648 13.495-30.142 30.144-30.142 16.644 0 30.14 13.494 30.14 30.142v30.559h73.583v-667.875zM677.811 524.855h-331.624c-16.646 0-30.142-13.495-30.142-30.144 0-16.644 13.496-30.14 30.142-30.14h331.624c16.649 0 30.144 13.495 30.144 30.14 0 16.649-13.495 30.144-30.144 30.144zM677.811 406.793h-331.624c-16.646 0-30.142-13.495-30.142-30.14 0-16.649 13.496-30.144 30.142-30.144h331.624c16.649 0 30.144 13.495 30.144 30.144 0 16.644-13.495 30.14-30.144 30.14zM677.811 288.734h-331.624c-16.646 0-30.142-13.5-30.142-30.144s13.496-30.144 30.142-30.144h331.624c16.649 0 30.144 13.5 30.144 30.144s-13.495 30.144-30.144 30.144z" />
<glyph unicode="&#xe937;" glyph-name="mention" d="M662.818 162.197l0.017 0.009c15.898 8.311 35.648 2.372 44.002-13.606 8.307-15.889 2.377-35.639-13.598-43.994-55.543-29.44-118.076-44.873-181.239-44.873-103.744 0-201.143 40.427-274.493 113.775s-113.774 170.748-113.774 274.492c0 103.744 40.425 201.143 113.774 274.493s170.749 113.774 274.493 113.774c103.744 0 201.143-40.425 274.492-113.774s113.775-170.749 113.775-274.493c0-61.393-15.104-113.715-44.181-151.027v0c-26.825-34.423-64.832-54.366-104.243-54.366-59.093 0-118.208 46.686-118.208 134.259v71.134c0 73.655-59.78 133.438-133.436 133.438s-133.44-59.936-133.44-133.438c0-73.655 59.934-133.44 133.44-133.44 12.945 0 25.911 1.984 38.289 5.649h0.004c17.173 5.065 35.469-4.681 40.55-21.926 5.060-17.169-4.672-35.452-21.905-40.546-18.359-5.636-37.504-8.363-56.939-8.363-109.532 0-198.629 89.097-198.629 198.626s89.097 198.631 198.633 198.47M662.818 162.197l-162.62 480.006M662.818 162.197c-46.123-24.38-98.159-37.274-150.818-37.274-178.155 0-323.078 144.922-323.078 323.076s144.922 323.078 323.078 323.078c178.155 0 323.076-144.922 323.076-323.078 0-59.9-16.738-93.568-30.409-110.993l-0.013-0.017c-14.643-18.871-33.95-29.197-52.813-29.197-13.090 0-26.236 5.197-36.147 16.247-9.911 11.055-16.87 28.297-16.87 52.826v220.485c0 17.937-14.66 32.594-32.593 32.594-17.937 0-32.597-14.658-32.597-32.594v-2.458M662.818 162.197l-24.917 428.705M500.203 646.47l-0.004-4.267M500.203 646.47c0 0-0.004 0-0.004 0v-4.267M500.203 646.47c51.383-0.002 98.138-19.516 133.431-51.577M500.198 642.203c51.682 0 98.577-20.171 133.436-53.127v5.817M633.634 594.893c1.442-1.309 2.863-2.64 4.267-3.991M637.901 590.902v0z" />
<glyph unicode="&#xe938;" glyph-name="menu" d="M256 627.091c-23.467 0-42.667 20.184-42.667 44.855s19.2 44.855 42.667 44.855h512c23.467 0 42.667-20.185 42.667-44.855s-19.2-44.855-42.667-44.855h-512zM256 402.816h512c23.467 0 42.667 20.186 42.667 44.855s-19.2 44.855-42.667 44.855h-512c-23.467 0-42.667-20.186-42.667-44.855s19.2-44.855 42.667-44.855zM256 178.543h512c23.467 0 42.667 20.186 42.667 44.855s-19.2 44.855-42.667 44.855h-512c-23.467 0-42.667-20.186-42.667-44.855s19.2-44.855 42.667-44.855z" />
<glyph unicode="&#xe939;" glyph-name="money" d="M210.368 749.632c166.725 166.725 436.561 166.702 603.259 0 166.733-166.726 166.703-436.565 0-603.264-166.724-166.724-436.558-166.699-603.259 0-166.726 166.724-166.701 436.562 0 603.264zM155.505 447.996c0-196.57 159.924-356.493 356.495-356.493 196.57 0 356.497 159.923 356.497 356.493 0 196.574-159.927 356.498-356.497 356.498-196.572 0-356.495-159.926-356.495-356.498zM618.782 412.962c19.349 0 35.038 15.689 35.038 35.038s-15.689 35.038-35.038 35.038h-44.898l74.94 124.904c9.958 16.593 4.578 38.115-12.015 48.072s-38.118 4.576-48.077-12.018l-76.736-127.896-76.736 127.896c-9.957 16.593-31.48 21.975-48.072 12.018-16.593-9.956-21.974-31.479-12.018-48.072l74.942-124.904h-44.898c-19.351 0-35.038-15.689-35.038-35.038s15.687-35.038 35.038-35.038h71.744v-36.706h-71.744c-19.351 0-35.038-15.689-35.038-35.038s15.687-35.038 35.038-35.038h71.744v-36.151c0-19.349 15.689-35.038 35.038-35.038s35.038 15.689 35.038 35.038v36.151h71.744c19.349 0 35.038 15.689 35.038 35.038s-15.689 35.038-35.038 35.038h-71.744v36.706h71.748z" />
<glyph unicode="&#xe93a;" glyph-name="narrow-down" d="M128 618.667c0-23.467 19.2-42.667 42.667-42.667h682.667c23.467 0 42.667 19.2 42.667 42.667s-19.2 42.667-42.667 42.667h-682.667c-23.467 0-42.667-19.2-42.667-42.667zM469.333 149.333h85.333c23.467 0 42.667 19.2 42.667 42.667s-19.2 42.667-42.667 42.667h-85.333c-23.467 0-42.667-19.2-42.667-42.667s19.2-42.667 42.667-42.667zM725.333 362.667h-426.667c-23.467 0-42.667 19.2-42.667 42.667s19.2 42.667 42.667 42.667h426.667c23.467 0 42.667-19.2 42.667-42.667s-19.2-42.667-42.667-42.667z" />
<glyph unicode="&#xe93b;" glyph-name="notification" d="M512.879 878.933c46.046 0 83.516-37.47 83.516-83.515v-36.058l2.914-4.046 11.793-4.086c116.028-41.632 174.835-106.621 174.835-212.272v-252.096l3.597-4.215 6.558-1.314c36.599-8.9 63.258-41.954 63.258-80.512v-3.012l-0.247-6.468c-3.311-42.675-39.1-76.395-82.603-76.395h-137.297l-4.134-3.204-2.155-7.441c-16.619-51.371-64.823-87.343-120.034-87.343-57.839 0-107.992 39.479-122.189 94.784l-4.133 3.204h-137.296l-6.465 0.252c-42.674 3.311-76.396 39.104-76.396 82.611v3.012l0.273 6.741c3.078 37.85 31.832 69.094 69.553 75.085l3.597 4.215v252.096l0.196 10.43c3.919 102.959 66.591 165.833 186.432 205.928l2.912 4.046v36.058l0.23 6.223c3.196 43.151 39.334 77.292 83.285 77.292zM556.783 104.939l-3.149-3.469c-10.714-10.496-25.225-16.653-40.755-16.653l-6.583 0.371c-13.018 1.476-24.994 7.287-34.176 16.282l-3.187 3.469h87.851zM249.261 215.821c-7.229 0-13.288-5.158-14.689-11.985l-0.305-3.017v-3.012c0-7.241 5.152-13.299 11.977-14.699l530.256-0.307c7.228 0 13.286 5.158 14.69 11.985l0.303 3.021 0.009 3.012c0 7.236-5.158 13.295-11.985 14.699l-530.255 0.303zM512.879 710.346c-110.068 0-200.072-80.559-204.987-181.147l-0.211-8.666-0.029-228.288h410.412l0.004 228.288c0 101.681-86.938 185.063-195.806 189.617l-9.382 0.196zM497.54 798.576l-0.32-3.148v-17.507h31.317v17.507c0 7.546-5.38 13.868-12.51 15.33l-3.149 0.319c-7.548 0-13.875-5.378-15.339-12.5z" />
<glyph unicode="&#xe93d;" glyph-name="open" d="M760.469 64h-496.94c-74.73 0-135.529 60.8-135.529 135.531v496.94c0 74.73 60.799 135.529 135.529 135.529h225.883c24.947 0 45.175-20.228 45.175-45.176s-20.228-45.177-45.175-45.177h-225.883c-24.909 0-45.176-20.267-45.176-45.176v-496.94c0-24.909 20.267-45.18 45.176-45.18h496.94c24.909 0 45.18 20.271 45.18 45.18v225.882c0 24.947 20.224 45.175 45.175 45.175 24.947 0 45.175-20.228 45.175-45.175v-225.882c0-74.735-60.8-135.531-135.531-135.531zM893.321 784.637c-0.043 14.55-7.322 28.869-20.083 37.413-15.177 10.137-13.773 7.604-152.845 7.604-24.947 0-45.171-20.213-45.171-45.143s20.224-45.143 45.171-45.143h18.709l-216.499-216.371c-28.54-28.518-7.936-77.060 31.94-77.060 11.558 0 23.117 4.407 31.936 13.222l216.503 216.371v-18.701c0-24.931 20.224-45.143 45.167-45.143 24.947 0 45.171 20.213 45.171 45.143 0.004 195.087 0 101.135 0 127.809z" />
<glyph unicode="&#xe93e;" glyph-name="option" d="M298.667 448c0-47.13-38.205-85.333-85.333-85.333s-85.333 38.204-85.333 85.333c0 47.13 38.205 85.333 85.333 85.333s85.333-38.204 85.333-85.333zM597.333 448c0-47.13-38.204-85.333-85.333-85.333s-85.333 38.204-85.333 85.333c0 47.13 38.204 85.333 85.333 85.333s85.333-38.204 85.333-85.333zM810.667 362.667c47.13 0 85.333 38.204 85.333 85.333s-38.204 85.333-85.333 85.333c-47.13 0-85.333-38.204-85.333-85.333s38.204-85.333 85.333-85.333z" />
<glyph unicode="&#xe93f;" glyph-name="partners" d="M808.525 329.195c-20.096 41.899-91.989 100.058-161.455 156.254-38.741 31.317-75.349 60.928-98.688 84.267-5.85 5.888-14.596 7.766-22.315 4.992-14.379-5.206-23.258-9.216-30.255-12.331-10.662-4.778-14.246-6.4-28.629-7.85-6.357-0.64-12.075-4.054-15.616-9.344-30.167-45.099-61.4-41.259-82.265-34.262-6.656 2.219-7.851 5.077-8.491 7.808-4.48 18.73 18.007 62.337 47.148 91.48 69.335 69.379 105.090 86.745 180.614 52.994 85.675-38.316 171.524-68.312 172.378-68.611 11.226-3.882 23.3 2.006 27.179 13.143 3.84 11.136-2.005 23.297-13.141 27.179-0.853 0.298-84.992 29.697-168.964 67.288-97.839 43.735-151.514 14.935-228.19-61.784-29.185-29.185-68.824-88.237-58.584-131.545 4.394-18.432 17.367-32.090 36.651-38.443 48.344-15.962 92.461-0.683 125.315 42.923 13.572 2.091 20.954 5.163 32.047 10.155 4.006 1.792 8.704 3.883 14.933 6.4 24.405-22.912 57.344-49.583 92.036-77.615 62.72-50.731 133.85-108.25 149.85-141.53 7.893-16.427-0.597-27.136-6.357-32.043-8.448-7.253-20.011-9.557-26.283-5.163-6.912 4.736-15.915 5.035-23.044 0.768-7.168-4.267-11.179-12.331-10.283-20.608 1.451-13.568-10.965-21.333-16.341-24.026-13.653-6.912-27.904-5.717-33.237-0.768-5.973 5.547-14.549 7.172-22.144 4.356-7.595-2.859-12.89-9.86-13.658-17.963-1.28-13.995-11.648-27.439-25.173-32.687-6.528-2.47-16-3.968-24.491 3.802-5.291 4.779-12.629 6.613-19.499 4.949-6.955-1.707-12.544-6.741-14.976-13.44-0.811-2.133-2.645-7.258-22.618-7.258-14.208 0-39.765 9.604-52.267 17.882-14.976 9.856-108.889 79.915-189.999 147.844-11.392 9.6-31.105 30.165-48.514 48.341-15.447 16.132-29.569 30.767-36.823 36.911-9.088 7.68-22.529 6.528-30.081-2.522-7.594-8.998-6.486-22.485 2.518-30.080 6.614-5.589 19.415-19.115 33.537-33.835 19.031-19.883 38.699-40.448 51.927-51.541 79.449-66.522 174.94-138.334 193.968-150.831 15.701-10.33 49.54-24.836 75.738-24.836 21.035 0 37.205 4.826 48.427 14.251 15.019-5.845 32.090-5.888 48.516 0.512 19.413 7.509 35.371 22.656 44.416 41.003 16.811-3.584 36.053-1.062 53.547 7.723 17.109 8.619 29.483 21.803 35.627 37.21 16.986-0.896 34.475 5.12 48.943 17.536 24.495 20.949 31.232 53.547 17.067 82.944zM426.646 682.701h-192.006c-11.776 0-21.335-9.558-21.335-21.335s9.558-21.335 21.335-21.335h192.006c11.776 0 21.333 9.558 21.333 21.335s-9.557 21.335-21.333 21.335zM871.036 374.596c-6.613 9.766-19.84 12.459-29.611 5.798l-62.379-41.899c-9.771-6.571-12.378-19.84-5.803-29.611 4.139-6.101 10.88-9.429 17.749-9.429 4.053 0 8.192 1.152 11.861 3.627l62.383 41.899c9.766 6.571 12.369 19.84 5.798 29.615zM738.594 272.785c-15.275 12.036-83.588 81.967-125.828 125.999-8.154 8.538-21.675 8.832-30.17 0.64-8.533-8.149-8.789-21.675-0.64-30.165 10.965-11.435 107.695-112.26 130.18-130.010 3.883-3.072 8.576-4.565 13.184-4.565 6.272 0 12.544 2.816 16.811 8.149 7.3 9.216 5.722 22.656-3.537 29.952zM653.342 229.99c-25.557 20.442-89.771 88.666-104.282 104.452-8.021 8.704-21.461 9.216-30.165 1.28-8.661-7.979-9.259-21.504-1.28-30.165 0.768-0.811 77.402-83.546 109.060-108.89 3.925-3.115 8.661-4.651 13.312-4.651 6.229 0 12.459 2.773 16.683 7.979 7.343 9.216 5.85 22.656-3.328 29.995zM568.435 187.025c-30.426 25.643-92.676 91.908-104.836 104.922-8.064 8.619-21.594 9.088-30.17 1.024-8.617-8.064-9.045-21.547-1.024-30.17 17.498-18.731 77.060-81.877 108.506-108.416 4.011-3.371 8.875-5.035 13.739-5.035 6.059 0 12.122 2.603 16.346 7.595 7.59 9.045 6.438 22.485-2.56 30.080zM22.615 767.968c43.947-2.602 190.17-13.824 226.738-48.471 4.736-4.436 7.126-10.836 6.57-17.323-9.681-110.902-83.156-336.419-86.314-346.112l-0.003-0.013c-2.858-8.789-11.050-14.72-20.267-14.72h-128.004c-11.776 0-21.335 9.557-21.335 21.338v384.011c0 5.888 2.432 11.52 6.7 15.53 4.266 4.054 9.856 6.058 15.914 5.76zM42.634 384.021h91.097c15.873 50.095 67.032 216.117 78.339 309.56-26.881 13.056-100.867 24.833-169.436 30.251v-339.811zM249.353 719.497l-5.87-6.195 0.036-0.033 5.834 6.228zM22.615 767.968l0.504 8.519-0.085 0.004-0.419-8.523zM255.923 702.174l8.501-0.742 0.001 0.014-8.502 0.729zM169.609 356.062l8.111-2.654 0.003 0.009-8.114 2.645zM169.606 356.049l-8.111 2.654-0.005-0.013 8.115-2.641zM6.7 762.208l5.843-6.219 0.035 0.034-5.878 6.185zM133.731 384.021v-8.533h6.248l1.887 5.956-8.135 2.577zM42.634 384.021h-8.533v-8.533h8.533v8.533zM212.070 693.581l8.471-1.025 0.731 6.042-5.474 2.659-3.728-7.676zM42.634 723.832l0.672 8.507-9.205 0.727v-9.234h8.533zM255.221 725.691c-10.669 10.109-28.315 17.766-48.052 23.791-20.062 6.125-43.567 10.931-67.070 14.693-47.031 7.528-94.898 11.004-116.981 12.311l-1.009-17.037c21.864-1.295 69.083-4.73 115.292-12.127 23.117-3.7 45.771-8.358 64.784-14.164 19.338-5.904 33.683-12.643 41.297-19.857l11.738 12.389zM264.425 701.446c0.774 9.026-2.547 18.011-9.239 24.279l-11.667-12.456c2.781-2.604 4.24-6.42 3.902-10.366l17.004-1.457zM177.722 353.417c1.594 4.89 20.794 63.825 40.815 135.45 19.96 71.405 40.967 156.222 45.886 212.566l-17.002 1.484c-4.762-54.558-25.333-137.952-45.32-209.455-19.926-71.283-39.042-129.954-40.606-134.758l16.227-5.286zM177.716 353.399v0zM149.339 332.796c12.906 0 24.379 8.303 28.382 20.617l-16.23 5.278c-1.713-5.269-6.624-8.828-12.151-8.828v-17.067zM21.335 332.796h128.004v17.067h-128.004v-17.067zM-8.533 362.667c0-16.491 13.379-29.871 29.868-29.871v17.067c-7.064 0-12.801 5.739-12.801 12.804h-17.067zM-8.533 746.678v-384.011h17.067v384.011h-17.067zM0.857 768.427c-5.993-5.63-9.39-13.517-9.39-21.749h17.067c0 3.544 1.466 6.922 4.010 9.312l-11.686 12.438zM23.034 776.492c-8.278 0.407-16.176-2.361-22.212-8.098l11.757-12.371c2.496 2.371 5.778 3.612 9.617 3.423l0.839 17.046zM133.731 392.555h-91.097v-17.067h91.097v17.067zM203.598 694.607c-11.191-92.49-62.059-257.691-78.001-308.008l16.269-5.154c15.802 49.873 67.254 216.716 78.676 311.112l-16.943 2.050zM41.961 715.325c34.067-2.692 69.442-6.961 99.571-12.163 30.467-5.26 54.579-11.317 66.809-17.257l7.456 15.351c-14.652 7.117-40.974 13.477-71.362 18.723-30.726 5.305-66.629 9.633-101.13 12.359l-1.344-17.014zM51.167 384.021v339.811h-17.067v-339.811h17.067zM738.338 680.695c3.883 1.792 96.811 44.673 264.329 44.673 11.776 0 21.333-9.514 21.333-21.332v-384.015c0-11.776-9.557-21.333-21.333-21.333h-128.004c-9.6 0-18.005 6.4-20.57 15.659-15.872 57.515-98.432 293.3-124.8 335.755-3.204 5.204-4.053 11.476-2.347 17.323s5.845 10.668 11.392 13.271zM890.62 341.355h90.714v341.088c-101.508-2.388-171.443-21.377-203.998-32.427 33.323-70.999 93.060-242.78 113.284-308.661zM738.338 680.695l-3.58 7.748-0.047-0.023 3.627-7.725zM854.093 314.347v0zM729.293 650.102l-7.27-4.47 0.021-0.032 7.249 4.502zM726.946 667.424v0zM981.333 341.355v-8.533h8.533v8.533h-8.533zM890.62 341.355l-8.158-2.505 1.852-6.029h6.306v8.533zM981.333 682.443h8.533v8.736l-8.734-0.206 0.201-8.531zM777.335 650.016l-2.743 8.081-9.037-3.067 4.058-8.639 7.723 3.626zM1002.667 733.902c-169.015 0-263.172-43.273-267.904-45.459l7.151-15.496c3.029 1.399 94.737 43.888 260.753 43.888v17.067zM1032.533 704.036c0 16.543-13.389 29.866-29.867 29.866v-17.067c7.074 0 12.8-5.706 12.8-12.799h17.067zM1032.533 320.021v384.015h-17.067v-384.015h17.067zM1002.667 290.155c16.486 0 29.867 13.38 29.867 29.867h-17.067c0-7.061-5.739-12.8-12.8-12.8v-17.067zM874.662 290.155h128.004v17.067h-128.004v-17.067zM845.871 312.073c3.58-12.954 15.351-21.918 28.791-21.918v17.067c-5.76 0-10.803 3.836-12.343 9.399l-16.448-4.548zM722.044 645.6c6.131-9.878 15.974-31.866 27.729-60.977 11.644-28.845 24.892-63.991 37.833-99.661 25.92-71.437 50.428-144.482 58.266-172.885l16.448 4.54c-8.034 29.116-32.747 102.72-58.667 174.165-12.979 35.776-26.308 71.128-38.054 100.23-11.644 28.837-22.007 52.243-29.060 63.593l-14.494-9.005zM718.754 669.815c-2.385-8.173-1.19-16.936 3.268-24.183l14.537 8.94c-1.941 3.161-2.449 6.943-1.421 10.462l-16.384 4.781zM734.711 688.42c-7.748-3.635-13.559-10.391-15.957-18.605l16.384-4.781c1.011 3.479 3.477 6.367 6.822 7.936l-7.249 15.45zM981.333 349.888h-90.714v-17.067h90.714v17.067zM972.8 682.443v-341.088h17.067v341.088h-17.067zM780.079 641.935c31.851 10.811 100.928 29.612 201.455 31.977l-0.401 17.062c-102.485-2.411-173.278-21.588-206.541-32.877l5.487-16.161zM898.778 343.859c-20.254 65.975-80.132 238.224-113.715 309.783l-15.45-7.252c33.058-70.438 92.655-241.757 112.849-307.54l16.316 5.009z" />
<glyph unicode="&#xe940;" glyph-name="pdf" d="M331.197 452.753c0 23.292-16.175 37.197-44.72 37.197-11.644 0-19.533-1.126-23.67-2.253v-74.799c4.89-1.109 10.903-1.489 19.148-1.489 30.455 0 49.242 15.403 49.242 41.344zM507.874 489.199c-12.791 0-21.039-1.126-25.941-2.257v-165.726c4.894-1.148 12.787-1.148 19.93-1.148 51.857-0.363 85.679 28.186 85.679 88.695 0.38 52.634-30.443 80.435-79.667 80.435zM825.643 586.572h20.77c26.769 0 48.486-21.704 48.486-48.488v-252.136c0-26.769-21.713-48.482-48.482-48.482h-20.774v-172.604c0-18.701-15.223-33.924-33.924-33.924h-559.744c-18.718 0-33.924 15.228-33.924 33.924v172.604h-20.769c-26.777 0-48.488 21.713-48.488 48.482v252.144c0 26.786 21.711 48.488 48.488 48.488h20.767v275.495c0 18.702 15.206 33.926 33.924 33.926h409.904c1.323 0 2.633-0.187 3.891-0.485 0.166-0.044 0.324-0.1 0.482-0.156 0.141-0.050 0.282-0.101 0.431-0.143 1.156-0.347 2.283-0.828 3.345-1.407 0.38-0.21 0.747-0.415 1.109-0.658 1.225-0.8 2.385-1.723 3.379-2.833 0.021-0.032 0.047-0.051 0.077-0.072l0.055-0.047 166.788-190.527c2.726-3.097 3.989-7.006 4.023-10.986l0.038-0.268v-0.002c0.073-0.542 0.145-1.082 0.145-1.618v-100.226zM624.913 862.068h-392.941v-275.508h559.746v84.979h-149.841c-9.361 0-16.964 7.591-16.964 16.962v173.566zM648.414 410.662c0 44.723-16.538 75.908-42.833 95.454-24.439 18.406-55.642 27.055-103.718 27.055-28.941 0-56.393-1.877-77.435-5.252v-248.802c14.297-1.873 35.34-3.75 65.023-3.75 49.591 0 90.189 10.517 116.843 32.687 24.465 20.681 42.121 54.118 42.121 102.609zM206.057 527.919v-249.937h56.746v90.573c5.238-0.751 12.026-1.135 19.53-1.135 33.833 0 62.767 8.273 82.308 26.697 15.044 14.268 23.29 35.315 23.29 60.126 0 24.806-10.873 45.858-27.037 58.628-16.905 13.538-42.091 20.301-77.414 20.301-34.951 0-59.767-2.261-77.422-5.252zM791.718 74.048v163.418h-559.746v-163.418h559.746zM743.514 484.318h97.357v46.976h-154.829v-253.308h57.472v101.85h90.957v46.605h-90.957v57.877z" />
<glyph unicode="&#xe941;" glyph-name="pen" d="M176.239 220.851l113.384-113.399-156.838-43.452 43.454 156.851zM204.587 277.734l440.059 440.070 141.918-141.922-440.067-440.071-141.91 141.922zM861.158 650.464l-31.962-31.963-141.935 141.933 31.974 31.963c29.423 29.42 77.124 29.42 106.547 0l35.375-35.366c29.376-29.456 29.376-77.124 0-106.568z" />
<glyph unicode="&#xe942;" glyph-name="person" d="M857.015 21.333c-21.53 0-38.985 17.015-38.985 38.003 0 148.787-124.169 269.837-276.791 269.837h-58.479c-152.623 0-276.791-121.050-276.791-269.837 0-20.988-17.453-38.003-38.985-38.003s-38.985 17.015-38.985 38.003c0 190.703 159.145 345.847 354.761 345.847h58.479c195.614 0 354.761-155.145 354.761-345.847 0-20.988-17.455-38.003-38.985-38.003zM515.494 350.089c-144.684 0-262.393 117.662-262.393 262.289s117.708 262.289 262.393 262.289c144.678 0 262.387-117.663 262.387-262.289 0-144.628-117.709-262.289-262.387-262.289zM515.494 796.951c-101.815 0-184.647-82.799-184.647-184.573s82.832-184.572 184.647-184.572c101.811 0 184.644 82.799 184.644 184.572s-82.833 184.573-184.644 184.573z" />
<glyph unicode="&#xe943;" glyph-name="pie-Chart" d="M512 874.667c-235.642 0-426.667-191.025-426.667-426.667 0-235.644 191.025-426.667 426.667-426.667 235.644 0 426.667 191.023 426.667 426.667 0 235.642-191.023 426.667-426.667 426.667zM536.998 823.847c187.81-12.373 338.475-163.037 350.848-350.849h-164.86c-11.452 97.202-88.785 174.536-185.984 185.983v164.866h-0.004zM674.445 448c0-89.715-72.73-162.445-162.445-162.445-89.719 0-162.447 72.73-162.447 162.445s72.728 162.445 162.447 162.445c89.715 0 162.445-72.73 162.445-162.445zM512 71.334c-207.694 0-376.667 168.969-376.667 376.666 0 199.292 155.589 362.929 351.668 375.847v-164.863c-105.405-12.415-187.446-102.3-187.446-210.985 0-117.141 95.302-212.446 212.445-212.446 48.303 0 94.157 16.038 131.494 45.594l116.553-116.553c-68.732-60.318-155.891-93.261-248.047-93.261zM795.401 199.953l-116.553 116.553c24.405 30.831 39.595 67.469 44.147 106.496h164.855c-5.402-82.85-37.615-160.567-92.45-223.049z" />
<glyph unicode="&#xe944;" glyph-name="pin" d="M213.333 576c0 165.12 133.547 298.667 298.667 298.667s298.667-133.547 298.667-298.667c0-177.92-188.587-423.253-265.813-516.693-17.067-20.48-48.213-20.48-65.28 0-77.653 93.44-266.24 338.773-266.24 516.693zM405.333 576c0-58.88 47.787-106.667 106.667-106.667s106.667 47.787 106.667 106.667c0 58.88-47.787 106.667-106.667 106.667s-106.667-47.787-106.667-106.667z" />
<glyph unicode="&#xe945;" glyph-name="png" d="M309.895 461.308c0 21.99-15.255 35.115-42.238 35.115-10.981 0-18.421-1.058-22.314-2.129v-70.575c4.606-1.062 10.272-1.408 18.097-1.408 28.706-0.021 46.454 14.537 46.454 38.997zM846.647 586.496h-20.774v100.251c0 0.625-0.098 1.255-0.183 1.888-0.034 3.981-1.297 7.891-4.023 10.989l-166.831 190.573c-0.047 0.049-0.098 0.066-0.132 0.119-0.994 1.111-2.155 2.034-3.379 2.834-0.363 0.244-0.73 0.448-1.109 0.658-1.062 0.579-2.189 1.060-3.345 1.408-0.316 0.088-0.597 0.217-0.913 0.298-1.259 0.299-2.569 0.486-3.895 0.486h-410.002c-18.723 0-33.932-15.227-33.932-33.934v-275.563h-20.772c-26.783 0-48.5-21.708-48.5-48.5v-252.206c0-26.773 21.716-48.495 48.5-48.495h20.774v-172.642c0-18.705 15.21-33.933 33.932-33.933h559.88c18.705 0 33.933 15.223 33.933 33.933v172.642h20.779c26.773 0 48.495 21.722 48.495 48.495v252.198c0 26.791-21.722 48.5-48.499 48.5zM232.058 862.060h393.038v-173.609c0-9.374 7.603-16.966 16.964-16.966h149.879v-85.001h-559.882v275.575zM447.501 368.384v-71.996h-49.641v239.044h63.128l49.655-87.595c14.178-25.182 28.378-54.955 39.002-81.929h1.058c-3.546 31.578-4.608 63.846-4.608 99.661v69.862h49.664v-239.044h-56.738l-51.081 92.22c-14.212 25.532-29.803 56.384-41.532 84.399l-1.045-0.346c1.451-31.573 2.138-65.263 2.138-104.277zM191.773 296.388v235.844c16.672 2.835 40.084 4.964 73.058 4.964 33.327 0 57.108-6.38 73.063-19.155 15.235-12.053 25.536-31.91 25.536-55.326 0-23.403-7.791-43.277-21.992-56.747-18.44-17.378-45.75-25.182-77.669-25.182-7.104 0-13.499 0.363-18.436 1.058v-85.474l-53.559 0.017zM791.94 73.847h-559.882v163.456h559.882v-163.456zM842.291 307.388c-16.666-5.666-48.247-13.487-79.812-13.487-43.605 0-75.204 11.004-97.173 32.277-21.982 20.578-34.061 51.793-33.698 86.899 0.35 79.441 58.172 124.832 136.542 124.832 30.857 0 54.639-6.014 66.321-11.697l-11.332-43.268c-13.146 5.683-29.457 10.291-55.701 10.291-45.018 0-79.083-25.54-79.083-77.325 0-49.297 30.869-78.374 75.204-78.374 12.403 0 22.336 1.417 26.603 3.546v50.010h-36.907v42.21h89.041v-125.914h-0.004z" />
<glyph unicode="&#xe946;" glyph-name="Porigon-fill" d="M762.667 475.712c21.333-12.318 21.333-43.106 0-55.424l-416-240.179c-21.333-12.318-48 3.081-48 27.712v480.357c0 24.634 26.667 40.029 48 27.712l416-240.178z" />
<glyph unicode="&#xe947;" glyph-name="ppt" d="M520.512 499.627c-11.648 0-19.546-1.118-23.689-2.24v-74.816c4.898-1.126 10.914-1.506 19.179-1.506 30.455 0 49.246 15.415 49.246 41.353 0 23.305-16.162 37.21-44.736 37.21zM346.807 462.417c0 23.305-16.149 37.21-44.721 37.21-11.644 0-19.542-1.118-23.685-2.24v-74.816c4.895-1.126 10.918-1.506 19.174-1.506 30.454 0 49.233 15.415 49.233 41.353zM846.647 586.496h-20.774v100.251c0 0.625-0.098 1.255-0.183 1.888-0.034 3.981-1.297 7.891-4.023 10.988l-166.831 190.574c-0.047 0.049-0.098 0.066-0.132 0.119-0.994 1.111-2.155 2.034-3.379 2.834-0.363 0.244-0.73 0.448-1.109 0.658-1.062 0.579-2.189 1.060-3.345 1.408-0.316 0.088-0.597 0.217-0.913 0.298-1.259 0.299-2.569 0.486-3.895 0.486h-410.002c-18.723 0-33.932-15.227-33.932-33.934v-275.563h-20.772c-26.783 0-48.5-21.707-48.5-48.499v-252.206c0-26.773 21.716-48.495 48.5-48.495h20.774v-172.642c0-18.705 15.21-33.937 33.932-33.937h559.88c18.705 0 33.933 15.228 33.933 33.937v172.642h20.779c26.773 0 48.495 21.722 48.495 48.495v252.198c0 26.791-21.722 48.5-48.499 48.5zM232.058 862.060h393.038v-173.609c0-9.374 7.603-16.966 16.964-16.966h149.879v-85.001h-559.882v275.575zM622.016 463.923c0-24.815-8.269-45.858-23.296-60.139-19.567-18.411-48.512-26.692-82.351-26.692-7.509 0-14.276 0.388-19.537 1.126v-90.598h-56.768v249.986c17.668 3.002 42.496 5.269 77.453 5.269 35.324 0 60.518-6.772 77.427-20.311 16.171-12.787 27.072-33.83 27.072-58.641zM221.632 287.62v249.986c17.672 3.002 42.494 5.269 77.45 5.269 35.332 0 60.521-6.772 77.428-20.311 16.175-12.787 27.069-33.83 27.069-58.641 0-24.815-8.263-45.858-23.296-60.143-19.564-18.415-48.509-26.692-82.345-26.692-7.511 0-14.278 0.393-19.547 1.131v-90.598h-56.759zM791.94 73.847h-559.882v163.456h559.882v-163.456zM834.057 492.868h-69.171v-205.248h-57.51v205.248h-68.045v48.114h194.726v-48.114z" />
<glyph unicode="&#xe948;" glyph-name="pptx" d="M429.773 481.993c-8.686 0-14.565-0.849-17.638-1.673v-55.697c3.649-0.853 8.119-1.126 14.276-1.126 22.685 0 36.672 11.482 36.672 30.801 0 17.335-12.053 27.695-33.31 27.695zM845.798 586.502h-20.774v100.253c0 0.63-0.098 1.255-0.183 1.894-0.034 3.98-1.301 7.891-4.028 10.984l-166.827 190.565c-0.051 0.053-0.098 0.069-0.132 0.118-0.994 1.111-2.155 2.039-3.383 2.834-0.358 0.248-0.725 0.451-1.105 0.661-1.062 0.576-2.189 1.060-3.349 1.409-0.316 0.082-0.597 0.211-0.909 0.297-1.263 0.297-2.569 0.483-3.895 0.483h-410.007c-18.721 0-33.932-15.227-33.932-33.933v-275.563h-20.774c-26.782 0-48.499-21.709-48.499-48.496v-252.201c0-26.773 21.717-48.508 48.499-48.508h20.774v-172.646c0-18.705 15.21-33.929 33.932-33.929h559.886c18.705 0 33.929 15.223 33.929 33.929v172.646h20.779c26.773 0 48.495 21.722 48.495 48.499v252.195c0 26.8-21.717 48.509-48.495 48.509zM231.205 862.067h393.042v-173.604c0-9.374 7.599-16.966 16.964-16.966h149.879v-85h-559.886v275.57zM518.238 476.937v35.84h144.973v-35.84h-51.494v-152.798h-42.812v152.798h-50.667zM505.318 455.394c0-18.458-6.14-34.125-17.34-44.762-14.562-13.717-36.117-19.891-61.286-19.891-5.614 0-10.654 0.282-14.565 0.853v-67.452h-42.262v186.116c13.155 2.236 31.633 3.925 57.659 3.925 26.321 0 45.065-5.039 57.673-15.113 12.032-9.523 20.122-25.199 20.122-43.678zM207.251 324.143v186.116c13.155 2.236 31.616 3.925 57.643 3.925 26.315 0 45.054-5.039 57.658-15.113 12.037-9.523 20.147-25.199 20.147-43.665 0-18.458-6.16-34.129-17.356-44.766-14.565-13.717-36.102-19.883-61.298-19.883-5.58 0-10.646 0.282-14.565 0.845v-67.452l-42.229-0.009zM791.091 73.852h-559.886v163.447h559.886v-163.447zM790.315 324.143l-17.084 34.15c-6.985 13.154-11.482 22.946-16.802 33.856h-0.546c-3.908-10.91-8.683-20.702-14.545-33.856l-15.684-34.15h-48.687l54.558 95.458-52.595 93.175h48.964l16.503-34.432c5.611-11.469 9.809-20.71 14.285-31.343h0.563c4.471 12.045 8.119 20.442 12.873 31.343l15.953 34.432h48.713l-53.184-92.079 55.97-96.555h-49.254zM300.44 454.298c0 17.344-12.038 27.703-33.313 27.703-8.659 0-14.568-0.849-17.645-1.673v-55.706c3.654-0.845 8.119-1.126 14.287-1.126 22.682 0 36.671 11.473 36.671 30.801z" />
<glyph unicode="&#xe949;" glyph-name="preview" d="M511.838 95.863c-203.298 0-384.021 120-460.396 305.732-12.129 29.461-12.129 63.309 0 92.77 76.374 185.769 257.098 305.769 460.396 305.769 203.302 0 384.026-120 460.399-305.731 12.13-29.461 12.13-63.309 0-92.77-76.373-185.771-257.097-305.771-460.399-305.771zM511.838 761.009c-187.373 0-353.894-110.492-424.204-281.474-8.217-20.032-8.217-42.999 0-63.031 70.31-171.021 236.83-281.51 424.204-281.51s353.899 110.49 424.205 281.472c8.218 20.032 8.218 42.999 0 63.031-70.306 171.020-236.83 281.512-424.205 281.512zM511.838 291.494c-86.311 0-156.503 70.195-156.503 156.506 0 86.312 70.192 156.504 156.503 156.504 86.315 0 156.506-70.192 156.506-156.504 0-86.31-70.191-156.506-156.506-156.506zM511.838 565.378c-64.713 0-117.377-52.666-117.377-117.378 0-64.717 52.665-117.38 117.377-117.38 64.717 0 117.38 52.663 117.38 117.38 0 64.713-52.663 117.378-117.38 117.378z" />
<glyph unicode="&#xe94a;" glyph-name="products" d="M664.073 861.513l-152.073-78.636-152.075 78.636c-9.797 5.085-21.547 4.687-30.986-1.030l-271.049-163.929c-9.282-5.612-15.018-15.552-15.218-26.365s5.168-20.964 14.228-26.912l99.133-65.099-99.127-65.098c-9.069-5.948-14.439-16.119-14.228-26.931s5.969-20.766 15.261-26.368l123.952-74.679v-150.545c0-11.243 6.012-21.645 15.778-27.277l298.472-172.335c4.902-2.829 10.377-4.245 15.859-4.245 5.466 0 10.927 1.395 15.821 4.224l299.524 172.335c9.801 5.632 15.821 16.047 15.821 27.302v151.172l122.897 74.039c9.284 5.589 15.040 15.522 15.262 26.313 0.235 10.79-5.103 20.962-14.123 26.935l-98.487 65.168 98.479 65.164c9.015 5.969 14.345 16.12 14.123 26.901-0.213 10.781-5.948 20.701-15.206 26.301l-271.053 163.929c-9.459 5.717-21.21 6.104-30.985 1.030zM213.533 578.184v0zM133.479 668.499l81.263-53.359 231.031 130.954-99.199 51.297-213.094-128.892zM747.209 578.27l-235.183 132.841-234.356-132.84 234.364-132.020 235.174 132.020zM578.313 746.141l231.893-130.979 80.482 53.253-213.265 128.978-99.11-51.252zM811.529 578.185v0zM214.804 541.256l231.105-130.179-99.39-52.023-212.959 128.849 81.244 53.354zM695.121 295.906l84.766 51.469v-94.626l-236.25-135.915v241.041l120.277-62.955c4.621-2.419 9.668-3.614 14.724-3.614 5.713 0 11.422 1.545 16.482 4.599zM480.358 357.892l-120.28-62.976c-4.62-2.402-9.671-3.614-14.723-3.614-5.716 0-11.421 1.536-16.463 4.604l-83.723 50.833v-94.012l235.189-135.799v240.964zM677.487 359.053l-99.311 51.968 231.987 130.22 80.452-53.236-213.129-128.951z" />
<glyph unicode="&#xe94b;" d="M813.628 749.632c-166.699 166.702-436.535 166.725-603.259 0-166.701-166.702-166.726-436.539 0-603.264 166.701-166.699 436.535-166.724 603.259 0 166.703 166.699 166.733 436.537 0 603.264z" />
<glyph unicode="&#xe94c;" d="M517.525 251.733c-14.037 0-27.486-12.343-26.837-26.837 0.653-14.541 11.793-26.837 26.837-26.837 14.037 0 27.49 12.343 26.842 26.837-0.653 14.541-11.793 26.837-26.842 26.837z" />
<glyph unicode="&#xe94d;" d="M517.525 682.667c-73.626 0-133.525-59.9-133.525-133.526 0-14.821 12.017-26.837 26.838-26.837s26.837 12.016 26.837 26.837c0 44.028 35.823 79.85 79.851 79.85s79.851-35.822 79.851-79.85c0-44.027-35.823-79.85-79.851-79.85-14.822 0-26.837-12.015-26.837-26.837v-109.461c0-14.822 12.015-26.837 26.837-26.837s26.837 12.015 26.837 26.842v85.329c60.809 12.459 106.688 66.381 106.688 130.816 0 73.626-59.9 133.526-133.525 133.526z" />
<glyph unicode="&#xe94e;" glyph-name="question" d="M783.458 176.538v0c150.042 150.037 150.067 392.861 0 542.924l30.17 30.17c166.733-166.726 166.703-436.565 0-603.264-166.724-166.724-436.558-166.699-603.259 0l30.17 30.17c150.040-150.042 392.861-150.063 542.92 0zM813.628 749.632l-30.17-30.17c-150.037 150.041-392.859 150.061-542.92 0-150.040-150.041-150.062-392.861 0-542.924l-30.17-30.17c-166.726 166.724-166.701 436.562 0 603.264 166.725 166.725 436.561 166.702 603.259 0zM783.458 176.538l-12.066 12.070-0.546-0.546-0.495-0.597 13.107-10.927zM783.458 176.538l12.070-12.066 0.546 0.546 0.495 0.597-13.111 10.923zM783.458 719.462l-12.066 12.068-12.066-12.068 12.066-12.068 12.066 12.068zM813.628 146.368v0zM240.538 176.538l12.068 12.070-12.068 12.066-12.068-12.066 12.068-12.070zM783.458 719.462l-12.066-12.068 12.066-12.068 12.070 12.068-12.070 12.068zM240.538 719.462v0zM240.538 176.538l12.068-12.066 12.068 12.066-12.068 12.070-12.068-12.070zM210.368 749.632v0zM770.351 187.465v0zM771.392 707.394c143.398-143.397 143.377-375.413 0-518.786l24.137-24.137c156.706 156.702 156.732 410.33 0 567.058l-24.137-24.136zM801.562 761.699l-30.17-30.17 24.137-24.136 30.17 30.17-24.137 24.136zM825.698 134.302c173.367 173.363 173.393 454.006 0 627.398l-24.137-24.136c160.064-160.061 160.038-419.091 0-579.125l24.137-24.137zM198.301 134.302c173.365-173.367 454.004-173.393 627.398 0l-24.137 24.137c-160.060-160.064-419.088-160.038-579.125 0l-24.136-24.137zM228.471 188.608l-30.17-30.17 24.136-24.137 30.17 30.17-24.136 24.137zM771.392 188.608c-143.398-143.398-375.409-143.377-518.786 0l-24.136-24.137c156.704-156.706 410.33-156.727 567.058 0l-24.137 24.137zM795.529 707.394l30.17 30.17-24.137 24.136-30.17-30.17 24.137-24.136zM252.606 707.394c143.395 143.395 375.409 143.376 518.786 0l24.137 24.136c-156.706 156.705-410.332 156.727-567.058 0l24.136-24.136zM252.606 188.608c-143.396 143.394-143.376 375.409 0 518.786l-24.136 24.136c-156.705-156.705-156.728-410.331 0-567.058l24.136 24.137zM222.437 134.302l30.17 30.17-24.136 24.137-30.17-30.17 24.136-24.137zM198.301 761.7c-173.365-173.366-173.392-454.009 0-627.398l24.136 24.137c-160.060 160.060-160.037 419.088 0 579.125l-24.136 24.136zM825.698 761.7c-173.367 173.366-454.007 173.39-627.398 0l24.136-24.136c160.059 160.059 419.087 160.037 579.125 0l24.137 24.136zM517.525 251.733c-14.037 0-27.486-12.343-26.837-26.837 0.653-14.541 11.793-26.837 26.837-26.837 14.037 0 27.49 12.343 26.842 26.837-0.653 14.541-11.793 26.837-26.842 26.837zM517.525 682.667c-73.626 0-133.525-59.9-133.525-133.526 0-14.821 12.017-26.837 26.838-26.837s26.837 12.016 26.837 26.837c0 44.028 35.823 79.85 79.851 79.85s79.851-35.822 79.851-79.85c0-44.027-35.823-79.85-79.851-79.85-14.822 0-26.837-12.015-26.837-26.837v-109.461c0-14.822 12.015-26.837 26.837-26.837s26.837 12.015 26.837 26.842v85.329c60.809 12.459 106.688 66.381 106.688 130.816 0 73.626-59.9 133.526-133.525 133.526z" />
<glyph unicode="&#xe94f;" glyph-name="reload" d="M396.74 532.706h-0.003l-157.325 50.567c-12.818 4.116-21.642 15.763-21.638 29.072 0 0 0 0.001 0 0.001v151.702c0 17.091 14.31 30.618 31.553 30.618s31.555-13.527 31.555-30.618v-80.39c63.712 55.316 146.553 85.946 232.509 85.722 191.023-0.497 345.792-150.268 345.276-334.927-0.521-184.653-156.122-333.615-347.14-333.12M396.74 532.706l-221.354-42.556-5.255 0.909c-3.191-18.406-4.797-37.035-4.798-55.697v-0.009c0.217-184.563 155.268-333.803 346.193-334.020M396.74 532.706c16.382-5.257 34.3 3.229 39.868 19.368l-39.868-19.368zM511.526 101.333h0.004c0 0-0.004 0-0.004 0zM319.605 235.725c-70.279 62.229-103.073 154.453-87.261 245.065l204.265 71.285c5.598 16.235-3.58 33.548-20.038 38.826 0 0 0 0 0 0l-107.923 34.625c105.983 104.708 279.906 109.91 392.465 10.241 114.603-101.476 122.172-273.216 16.964-383.689-105.314-110.588-283.759-117.931-398.471-16.354z" />
<glyph unicode="&#xe950;" glyph-name="reports" d="M701.692 649.422l56.32-56.32-190.865-190.862-128.674 128.674c-15.254 15.255-39.894 15.255-55.147 0l-234.667-235.055c-15.253-15.253-15.253-39.893 0-55.147s39.893-15.253 55.147 0l206.898 207.287 128.676-128.674c15.253-15.253 39.893-15.253 55.147 0l218.633 218.239 56.32-56.319c12.122-12.126 33.242-3.52 33.242 13.687v168.178c0.393 10.951-8.213 19.555-19.162 19.555h-167.787c-17.6 0-26.206-21.12-14.080-33.245z" />
<glyph unicode="&#xe951;" glyph-name="responce" d="M293.613 685.096v0l-96.938-108.652h512.611c113.749 0 206.272-92.522 206.272-206.272s-92.523-206.272-206.272-206.272h-94.724c-16.879 0-30.558 13.683-30.558 30.558 0 16.879 13.679 30.562 30.558 30.562h94.724c80.026 0 145.152 65.126 145.152 145.152s-65.122 145.152-145.152 145.152h-512.61l96.939-108.655c11.232-12.591 10.135-31.91-2.461-43.145l-0.003-0.004c-5.821-5.188-13.103-7.753-20.335-7.753-8.382 0-16.769 3.443-22.809 10.214l-127.028 142.379c-19.082 21.389-19.084 53.653-0.003 75.047l0.001 0.001 127.026 142.374c0 0 0.001 0.001 0.001 0.001 11.237 12.597 30.557 13.693 43.148 2.46l2.46-43.148zM293.613 685.096c11.235 12.594 10.135 31.911-2.459 43.147l2.459-43.147z" />
</font>
</defs>
</svg>
